<mxfile host="65bd71144e">
    <diagram id="cwRHB0MOHXoGEHMVBE8y" name="Page-1">
        <mxGraphModel dx="1642" dy="1775" grid="1" gridSize="10" guides="1" tooltips="1" connect="1" arrows="1" fold="1" page="1" pageScale="1" pageWidth="1100" pageHeight="850" math="0" shadow="0">
            <root>
                <mxCell id="0"/>
                <mxCell id="1" parent="0"/>
                <mxCell id="17" value="5 ko insert" style="text;html=1;align=center;verticalAlign=middle;resizable=0;points=[];autosize=1;strokeColor=none;fillColor=none;fontSize=7;" parent="1" vertex="1">
                    <mxGeometry x="40" y="-20" width="60" height="20" as="geometry"/>
                </mxCell>
                <mxCell id="19" value="" style="shape=stencil(nVjZctswDPwavWLAm3hO0//ITJzaUzfOOO7194Xq0jbBaJX0TVF2hYM4lp7C3ev24WUzeX49HQ9fNz93j6ftFD5N3u+et5vj7qRPU7ifwt3T4bj5cjx8f348//3yMCPnp2+HH/MXfp15TMnNJM+/Ly/y3xefz/D97vkG7qhkA/eyDA/kooXzMjxSEANnAM/kvIGHugyvFC08JxCqo2TxFeETxT43Dn5/9jZ0+Aij1XADd/jaPvB27gP5Pvmzh8Ch6Jr9RlCPIjouoVg6QohUQDmkSq5PUUxUwJHlTLl3KRViEHRRj/ugc6HiQVE4SyiZKuiAWmyR1ghdkkDcW6iCCUKptyCeGLikhOItIYCglVCjJQi2IIYQSHAMYmJI5BzoHmZbfZJh9c0m+mKSQjniqI1PFdbGnNfaE6SNyyXCv46/IQh2yYzfa1RLhDC6VCDBFxt0xTE4sWktYGzMBBN0bpPzvYTURtViDKY0VlpO2la6KVfGFqI5B+0gfA5p6CDG55CrJTgw+uZqHVwq+ODE2aATtiDVprWAjnurRxMJjtqaKGtHLWaUVbjU5zQZgh4+JmSxhLrSo2avM9Yl/8HwwyzLJKDpdAt5k1jXMre050KfJ11bBVS4btLQl1NJlIEF3dWxdylHGIOqAbMYU4CTRvVG6AdH9FSRQGE78YNvTi5pJiNYVcKioFWU+V7EOZUsYDRdBfOF4JuKWpSVRsYx1H2jbr20yPtksX6f0Tlb1e3wHWAQ9YrPIODhCBQPE2SvJA5fA4Ybj+KRMmHrv8CRx8O+hRcqtd3Da5viC3A24hPuNW5r8tLDcG8O4z2tOdPD8UQZnAlQrg2hetiJQyLdijPewj9UBAw35Qdv1atwfbhe4J92+/35/n/7f3vh11fnHwvC/R8=);lineShape=1;fontSize=7;" parent="1" vertex="1">
                    <mxGeometry x="84.47293146902581" y="11.12338055872874" width="22.06970757486278" height="2.378977557540188" as="geometry"/>
                </mxCell>
                <mxCell id="20" value="" style="shape=stencil(lVhJchsxDHyNriiS4Hp2nH+4ynKkimK5ZGX7fTCZcCSAo1Z804ImAXRjmdnww/vu6W27Ce79fDp+3f7cP593G/60CWH/utue9mf5tOHHDT+8HE/bL6fj99fn+fvb02Q5ffp2/DGd8GvGMaUwgYL7Pf/gyJe/P3yezQ/71ytzH6hUZc+U2217+bs5ZV+I0217DsT6fO/IAYdioBQ1gCm624DEVFgDMjVwQ04UNUByhAAlU9AxhEQ+3wbUREUnKTSKIEtNWGiaBQkauNQKFZ0lLpRAlryTtGufJNMor01c1kqKhTLySfKqfRJqkPZqpaxvSJViBUQ0KkUBspAPiMgSg9eARg4QIQ6krOUdu+DX5Vp6EjugenLAJU69XhZAgUGHQFWrry01vk61p6Z5ECozuEEAoVjAvyNuiImSjuFKXuvaoMr2hgqy1Ch4a5+AR9WWg9gjFhadLfZYedVKWwqwImlTHuwDqp3u7WKfobDbcH4mBm1bGOMBEFC/8L1L/z+gDCGg/iKTZ3SpIJmGgWSZPfiGxhaAilkAVbdhkUXyEJAHnTrEQyA/CDUBoiWtabgBKU+YNqPkXm1eBvJ1+TMSn2l5U3+BxWYbmJQ3OL/aDUBYQP2r2nku9mjFqLZ7iSwi9N+sPCLUBhpwG/yRSgCi+Ki9rCtWdQ7uI7KEVV2bNUJAjFTNlicLByiElHpGFoDvLXN9MmfbLqa1DNwgS1g2AAkasCAhmnaRZJQjGpzlIbm++K0DuMty2ZAyFGqL5DRx0eGxIH/rtHLunX89aLbSEO7RIJH1xky2aXaBbnHZuBZAhGpNQ8sLy/qwLj7ZxnUMvvS8rcvbWZfkkaGAG2SlMuvFNO7w+DT7C+4Yvu/iC8/kgC4kYPsMVoGyh+2LoTOuN9uLuYOnO0MXJdCsh8eKcOd0r809HLDOLsu+e3fDvOhykU4JfPfkmzFnNO1tQ1mCWVcZMRtzNIaD3drFHPj+wef8u+by4fJK4WV/OMxvJK7/t68g5Kf59QU//gE=);lineShape=1;fontSize=7;" parent="1" vertex="1">
                    <mxGeometry x="105.12663252903207" y="10.924911810798108" width="4.303788861842341" height="5.078466798545464" as="geometry"/>
                </mxCell>
                <mxCell id="33" value="" style="group" parent="1" vertex="1" connectable="0">
                    <mxGeometry x="100" y="-5" width="70" height="55" as="geometry"/>
                </mxCell>
                <mxCell id="22" value="" style="group" parent="33" vertex="1" connectable="0">
                    <mxGeometry x="10" width="50" height="55" as="geometry"/>
                </mxCell>
                <mxCell id="4" value="4&lt;br style=&quot;font-size: 7px;&quot;&gt;" style="text;html=1;align=center;verticalAlign=middle;resizable=0;points=[];autosize=1;strokeColor=none;fillColor=none;fontSize=7;" parent="22" vertex="1">
                    <mxGeometry x="10" width="30" height="20" as="geometry"/>
                </mxCell>
                <mxCell id="7" value="3" style="text;html=1;align=center;verticalAlign=middle;resizable=0;points=[];autosize=1;strokeColor=none;fillColor=none;fontSize=7;" parent="22" vertex="1">
                    <mxGeometry x="20" y="35" width="30" height="20" as="geometry"/>
                </mxCell>
                <mxCell id="21" value="" style="group" parent="22" vertex="1" connectable="0">
                    <mxGeometry y="13.918021306431228" width="42.19624544701863" height="27.816055047083545" as="geometry"/>
                </mxCell>
                <mxCell id="5" value="2" style="text;html=1;align=center;verticalAlign=middle;resizable=0;points=[];autosize=1;strokeColor=none;fillColor=none;fontSize=7;" parent="21" vertex="1">
                    <mxGeometry y="1.0819786935687716" width="30" height="20" as="geometry"/>
                </mxCell>
                <mxCell id="9" value="" style="shape=stencil(lVhJchsxDHyNriiAC0ieHecfrrIcq+JYLtnZfh9MVByL4KgT37R0c7CjObt48/p497LfBX59Ox2/7n8e7t8ed/HTLoTD8+P+dHizT7t4u4s3D8fT/svp+P35/vz95W5BLp++HX8sJ/w681qjFhZW4N/nX5ia/v3h8xn/dHi+xBcqOuATxQzwiaQO+EpVAF6IZcBLoJCuE6pSzSNBSQMgCOlICEIFPKHk/vdKKJSAz9oojjGKkRIwSQNVHgmNEl8nZKXcxiwkahUQmOrog/3CgJDM6TgSEmkBBKHoCJUyiFIsPnEqPQzbhEw8+qCph2GbYGEda1sVRilOxWepFPCE0LxJRSiD9glWrWUkrA2yTbCojyYV7R27TQiUxoYrjQpInDU8jybVAPtBSs/rSsiUIyBY4sbyrhX2tLV8Hn1oTAVMDeE+hFZC6IHeHgIUx/6xOVWAC0pl9KApBZBn8bVtcxaNPaua5PENRYjCaI8w9yBvEqb+Xx4A6o4py+QAxIfp/ALKdCo6w2dovyshw6MEGH5KAEN7gvO3wmHElNTjFRSQ1W/z+AzsEZLk8QlMIun/Xp6PerKX46X9aHBN8ay9oq7gpU3xh+f7+NsSBQ1j50ePR9tGqE34AvE61U+DDRzDhAf5WlXW/zewTgFCe4A3DCqwgWU6P0M8zwkDAeXefhd4gf7KXHBgopu/xeMV2v8xfCZx9mdKoCBs0bsGiHDg1glvJQ78FdMqjmAhRh0f/YiotsjRE7SftxJSN3KbUP3SMCUhoCaWrTSaZFolIHET/RgyNRQRIfcpshIiLOtF2jv5ZK2KfDCl7lRpxapUvEmmSiNInF0e8jgr1EoJCWXtl4cLZY3Eflxn26rdC9x+dtuI4xNy7AN2m9D6BWi9sDTodLZ+c/fMRAEpNPESMOKNpqUHcSUEUpA4U+rBXRwVisbKfonbmkAixHR0GPvBpDOSgXUKq+D7hw2V7KQ4vH7YkGsuqlSByzZEeUwbw5tvq/71gAkxMJMM77LMcMIsKsjbw/h8p9PWPbeNb35G4i2+qNbi8SiezeeL+9i/hldvP7rALqrexxPN00V0eHxCO4Qn4W5CBlT0u2x6x6NJ9OH3V//E24f3l2UPh6en87u2y//9yzX76fxiLt7+AQ==);lineShape=1;fontSize=7;" parent="21" vertex="1">
                    <mxGeometry x="19.564740664598645" y="0.16814491020784317" width="4.077038719613128" height="5.973885570734757" as="geometry"/>
                </mxCell>
                <mxCell id="11" value="" style="shape=stencil(lVnJUhsxEP0aX7taa0tnQv6DKkxwhWDKkO3v0xOX5FHL84CbPdab3l5v8i7cvD7evex3nl/fTsfv+9+H+7fHXfiy8/7w/Lg/Hd700y7c7sLNw/G0/3Y6/ny+P39/uVtOLp9+HH8tb/hzxjFFWUCe/7YHXP8/+Ho+/nR4Xh13lPNw3FECxyN5Ho5HinH7eCGfhuOFsgPKOBKjjaOaASBTGAXoEw8Aal7xA0CfBA8AQtUAMlXeBgT1yAgIngQAoiMejQ6FIgIIxTIGIVAp24AUrJdioQIkJFVgVElf4UHgspo4SkjqpQAAmVwdAZUKklBs4FQmp22AcHtfBwSqgKviyccRkCiCXBB1q5GQoQ2i2WNsKMSAfJIsNXIlJxBQRmqoGxCXJJOMKkmvCNcBQtlI8DDSoik/FiR1g0NeqpOERB4YXZjyyCW1KgIJxU0qCSXApeIpj/RWqxJSKdh8WKwCbi2xObFXSuUvkqAJZAC+ses6QCxbVcmMareaaCQkcsgGzWBT7ZVdgBrV2XxQmciGqnEwAJUJUrRqyo9cUpkJSVCqGUAgB7xUs+23NTZ2XQcIyRgHfYUDKVqrzelaqCIJtdW5DqhwBlgAxQI8yAfHOlSwRUQUahVRLQCNAgsgWYBgq62bKmzUtdoGcfHDFsDUypUfthA5TCJACunPKVsAKgMLYAqEIL5W29qXV2AJMyBgNsWZTSjnqi00C1+xl7IxujS2bAKmFIJ1o3Pt4wBT+xaVcBzMXLkYjW2oMrkVkO96koZ3CseUpKgvXti8Zh8OdZ1yruBQl89mkOm8H0nSyYh36kCaKw2uZZ8ESNuqOkCIkUraQoyE1FrlVp+z3Ii4C4WpbXk4HevPZumojEPNluDa3NHSUSa36oyDNq0yr6PqNzwzsRmBIuxaOiGVkUsFL07L+8aU0+EU7XL6vmTGOG7FbWt2jWOkpfttazoOZpzWSRANitxa/2qcRvO3KhBHG3Rg90AlVcCqlGDgVIFgdoiAt5TcKuNqrckIkGzT0sUpoMUptr68Ws0ckhBsh9BtEZU+BRi2ZoEjk2ps6r0usBHFgW3G5QhVUo3NwK5LOBpFdeU2o2jm1lm3bh7S6NYkcDpOUxFIsS3+W7cnztyeaFMCgChtXe2A2EJ5HcB2eAgVXquF2IpKBwQ49XmxZWa510KAfg3YAR7S2/VK2vuu5iAaT/oi1gFKDVQqp44FN+ope/BljrPdysPlmC0nHLyX6Xewl+OonevxkdMMs4yb3y7HC6DbNBYyXFivHEcbNNsixHDmZHvDxTAZ2bIM11C2YxHDxYJtaWDISG43x6vjgPFsG3F31dbxz1zkv3tcP1z+M3g4PD2d/3JY/27/Y9BH5/8nwu0/);lineShape=1;fontSize=7;" parent="21" vertex="1">
                    <mxGeometry x="27.34329623413376" width="13.43037879425657" height="6.528432542546019" as="geometry"/>
                </mxCell>
                <mxCell id="13" value="" style="shape=stencil(lVfbctpADP0av2pW2vtzmv5HZkIKUwoZQtrm7yPXtfFq4bS8GXPk1eVIRzv4h7ft0+tmEPd2Ph2/b37tns/bwX8ZRHaH7ea0O+vT4B8H//ByPG2+nY7vh+fp9+vTiByffhx/jl/4PdnVSjWNVuI+pjeOsvvz4uuE3+8Oa3yhUhq8UEwAnyjUBh8pI7xQcA2eHRXgUCmUYmsQKQRg4Cm2JwhTktsGOZNIa1CoAoOkOQ2Ngc/EIOjEVNoYQiIHYojeZilGEnBCCJTasqUAg/aJfMuL7EnKbQPNSeLGoDA5BgY8E2ExyJRA0FpXk1YlSwEnMJO0LikbI+BSpthyVdlegUeOXBuBdlMCOVK8s/gIAlC8t3gP/eFo8VwR3nd4lxE+uS4/8PtmVox4wFKeu+Q/v88U+B7/ufMf50cZKvfkX/FdPlF91Z9q8Yg/TLH7fgFNzOQ7/lSP8H+zt8bD+ua2vuwWit8wiF3BakR46RwqgEDaAF2BMwjYzRNqXTDYAD0+wHh7fwQ2cB8vwwHR5xPN3K5gY4PBhrGEUDwkaE84pGPXCM2AD9caRmAD34dPVlY1Xg8arBP6GnGDLaK7kjDkkFbMeKQiiTKkGiatS0VJAlzyYa7oIvRYVcOyB6xWCQYkimJlLwZ4QtKgWxqFOCvzdYNCsU2rri8ZrXTRNoKuLwGcUMRKsXJL0FqarZbp+uIQlVQsW67q4utBWmuYqXbZrD3arPs1Fs4ipb60zenw98usjRe8AKYqPhSDR8yu3aLvoNiPN5UOjwpQ7bDDWjaOEus/mr2jVFSLR/HqLmD9Yex/EZt/7I/hj8OzbtkFLviAZrXr1l0HxfXuq+g/8fpwufe+7Pb76dq8/t/ek/XVdMf2j58=);lineShape=1;fontSize=7;" parent="21" vertex="1">
                    <mxGeometry x="8.538293097297753" y="16.56522440687911" width="4.592531380150672" height="7.765862021405667" as="geometry"/>
                </mxCell>
                <mxCell id="15" value="" style="shape=stencil(lVjbchoxDP0aXjXyXX5O0//ITEhhSkOGkF7+vtpSA5Z3D+Rt2dXBuuvIq/Dwvnl6W688vx8P++/rX9vn42YVvqy8375u1oftUZ9W4XEVHl72h/W3w/7j9fn0++1pkpyefux/Tv/w+4RjimUCef7TXjj378XXk/hu+3ol7im6TtyT5GXxRCV04rm9mBUXKrkTd0wM/t7p6b4HxGbPPKBQjT2gUgEAH4n7E9SE/29mAYFJ+hOCp5oAQMhJB4gMbYjq1NoDhDzwagoUekBKUKXMlHtADhQjABRKvZeK2sDLgBIoG4BmBnBrEZLUAcTDRJVArk89ye3MeUCm1J9QtRRAHKSS72uhaqQBoDryfa3VRCwA4K3RVZUEcaiarQagkQFemhQwNkjz2xJAxAISskHjGi2ggtSYNDaACitOP+dgTxBkQ7Vd6TZARgAyulId3ForBhRrNIqDY+2MbBEB+bU2Da4A8YYR2QIyyj5103ACaq4TYLBBMKAMAJhMqvF4AjY6jQBUQerEMHgJhzqIBSScfWGIQwBTcfYEh1UabWCskvWStIy/Nw7S5uS9kZY26+/NJYHUZCZbBU7F2XqA7Xuu4jwwer6oI7Z67BvpRqNxFoAo2UzvqzcjNwBu1OgnAaX1rQtNPDtuaQgZujEZgfyaGhu5DgSevOOIqMivwfJEBXgUOT+UUMEN3w2zPUGj5Zz/Z0BoVbhEmbxpNAzbgHI26dNV1AZQc0r7Ul9CcuZES8TSNMui2YK4biFvAI4c4rpsm2WOjcEv0W/DRFOGE0IJfuoBSvARsQy61fTZGl3jpktLSurjEHCkvX7uU2Pa5PCilfsTdLFMIPl0lTO0zyXyKFvt4qq7Isru1BrpOc4UQRB8WzzPHoJ9VVeFvjgZDh+2/85UQAqxXUJ1QcPiVpmElbHiqNWxbStMATQ6FY9GHIVVxasRRzyYW61exNGFAduVjeFqwba/4TGjjhiUAVXI9i6F2/a2JP6Zm5qb4vpwuRR62e52pzul6+/2EklfnS6gwuNf);lineShape=1;fontSize=7;" parent="21" vertex="1">
                    <mxGeometry x="15.15067034740025" y="16.73338759431124" width="14.4058144281356" height="8.47192522351325" as="geometry"/>
                </mxCell>
                <mxCell id="32" value="" style="group" parent="33" vertex="1" connectable="0">
                    <mxGeometry y="15" width="70" height="40" as="geometry"/>
                </mxCell>
                <mxCell id="6" value="7" style="text;html=1;align=center;verticalAlign=middle;resizable=0;points=[];autosize=1;strokeColor=none;fillColor=none;fontSize=7;" parent="32" vertex="1">
                    <mxGeometry x="40" width="30" height="20" as="geometry"/>
                </mxCell>
                <mxCell id="8" value="1" style="text;html=1;align=center;verticalAlign=middle;resizable=0;points=[];autosize=1;strokeColor=none;fillColor=none;fontSize=7;" parent="32" vertex="1">
                    <mxGeometry y="20" width="30" height="20" as="geometry"/>
                </mxCell>
                <mxCell id="34" value="" style="group" parent="1" vertex="1" connectable="0">
                    <mxGeometry x="190" y="-5" width="70" height="55" as="geometry"/>
                </mxCell>
                <mxCell id="35" value="" style="group" parent="34" vertex="1" connectable="0">
                    <mxGeometry x="10" width="50" height="55" as="geometry"/>
                </mxCell>
                <mxCell id="36" value="4&lt;br style=&quot;font-size: 7px;&quot;&gt;" style="text;html=1;align=center;verticalAlign=middle;resizable=0;points=[];autosize=1;strokeColor=none;fillColor=none;fontSize=7;" parent="35" vertex="1">
                    <mxGeometry x="10" width="30" height="20" as="geometry"/>
                </mxCell>
                <mxCell id="37" value="3" style="text;html=1;align=center;verticalAlign=middle;resizable=0;points=[];autosize=1;strokeColor=none;fillColor=none;fontSize=7;" parent="35" vertex="1">
                    <mxGeometry x="20" y="35" width="30" height="20" as="geometry"/>
                </mxCell>
                <mxCell id="38" value="" style="group" parent="35" vertex="1" connectable="0">
                    <mxGeometry y="13.918021306431228" width="42.19624544701863" height="27.816055047083545" as="geometry"/>
                </mxCell>
                <mxCell id="39" value="2" style="text;html=1;align=center;verticalAlign=middle;resizable=0;points=[];autosize=1;strokeColor=none;fillColor=none;fontSize=7;" parent="38" vertex="1">
                    <mxGeometry y="1.0819786935687716" width="30" height="20" as="geometry"/>
                </mxCell>
                <mxCell id="40" value="" style="shape=stencil(lVhJchsxDHyNriiAC0ieHecfrrIcq+JYLtnZfh9MVByL4KgT37R0c7CjObt48/p497LfBX59Ox2/7n8e7t8ed/HTLoTD8+P+dHizT7t4u4s3D8fT/svp+P35/vz95W5BLp++HX8sJ/w681qjFhZW4N/nX5ia/v3h8xn/dHi+xBcqOuATxQzwiaQO+EpVAF6IZcBLoJCuE6pSzSNBSQMgCOlICEIFPKHk/vdKKJSAz9oojjGKkRIwSQNVHgmNEl8nZKXcxiwkahUQmOrog/3CgJDM6TgSEmkBBKHoCJUyiFIsPnEqPQzbhEw8+qCph2GbYGEda1sVRilOxWepFPCE0LxJRSiD9glWrWUkrA2yTbCojyYV7R27TQiUxoYrjQpInDU8jybVAPtBSs/rSsiUIyBY4sbyrhX2tLV8Hn1oTAVMDeE+hFZC6IHeHgIUx/6xOVWAC0pl9KApBZBn8bVtcxaNPaua5PENRYjCaI8w9yBvEqb+Xx4A6o4py+QAxIfp/ALKdCo6w2dovyshw6MEGH5KAEN7gvO3wmHElNTjFRSQ1W/z+AzsEZLk8QlMIun/Xp6PerKX46X9aHBN8ay9oq7gpU3xh+f7+NsSBQ1j50ePR9tGqE34AvE61U+DDRzDhAf5WlXW/zewTgFCe4A3DCqwgWU6P0M8zwkDAeXefhd4gf7KXHBgopu/xeMV2v8xfCZx9mdKoCBs0bsGiHDg1glvJQ78FdMqjmAhRh0f/YiotsjRE7SftxJSN3KbUP3SMCUhoCaWrTSaZFolIHET/RgyNRQRIfcpshIiLOtF2jv5ZK2KfDCl7lRpxapUvEmmSiNInF0e8jgr1EoJCWXtl4cLZY3Eflxn26rdC9x+dtuI4xNy7AN2m9D6BWi9sDTodLZ+c/fMRAEpNPESMOKNpqUHcSUEUpA4U+rBXRwVisbKfonbmkAixHR0GPvBpDOSgXUKq+D7hw2V7KQ4vH7YkGsuqlSByzZEeUwbw5tvq/71gAkxMJMM77LMcMIsKsjbw/h8p9PWPbeNb35G4i2+qNbi8SiezeeL+9i/hldvP7rALqrexxPN00V0eHxCO4Qn4W5CBlT0u2x6x6NJ9OH3V//E24f3l2UPh6en87u2y//9yzX76fxiLt7+AQ==);lineShape=1;fontSize=7;" parent="38" vertex="1">
                    <mxGeometry x="19.564740664598645" y="0.16814491020784317" width="4.077038719613128" height="5.973885570734757" as="geometry"/>
                </mxCell>
                <mxCell id="41" value="" style="shape=stencil(lVnJUhsxEP0aX7taa0tnQv6DKkxwhWDKkO3v0xOX5FHL84CbPdab3l5v8i7cvD7evex3nl/fTsfv+9+H+7fHXfiy8/7w/Lg/Hd700y7c7sLNw/G0/3Y6/ny+P39/uVtOLp9+HH8tb/hzxjFFWUCe/7YHXP8/+Ho+/nR4Xh13lPNw3FECxyN5Ho5HinH7eCGfhuOFsgPKOBKjjaOaASBTGAXoEw8Aal7xA0CfBA8AQtUAMlXeBgT1yAgIngQAoiMejQ6FIgIIxTIGIVAp24AUrJdioQIkJFVgVElf4UHgspo4SkjqpQAAmVwdAZUKklBs4FQmp22AcHtfBwSqgKviyccRkCiCXBB1q5GQoQ2i2WNsKMSAfJIsNXIlJxBQRmqoGxCXJJOMKkmvCNcBQtlI8DDSoik/FiR1g0NeqpOERB4YXZjyyCW1KgIJxU0qCSXApeIpj/RWqxJSKdh8WKwCbi2xObFXSuUvkqAJZAC+ses6QCxbVcmMareaaCQkcsgGzWBT7ZVdgBrV2XxQmciGqnEwAJUJUrRqyo9cUpkJSVCqGUAgB7xUs+23NTZ2XQcIyRgHfYUDKVqrzelaqCIJtdW5DqhwBlgAxQI8yAfHOlSwRUQUahVRLQCNAgsgWYBgq62bKmzUtdoGcfHDFsDUypUfthA5TCJACunPKVsAKgMLYAqEIL5W29qXV2AJMyBgNsWZTSjnqi00C1+xl7IxujS2bAKmFIJ1o3Pt4wBT+xaVcBzMXLkYjW2oMrkVkO96koZ3CseUpKgvXti8Zh8OdZ1yruBQl89mkOm8H0nSyYh36kCaKw2uZZ8ESNuqOkCIkUraQoyE1FrlVp+z3Ii4C4WpbXk4HevPZumojEPNluDa3NHSUSa36oyDNq0yr6PqNzwzsRmBIuxaOiGVkUsFL07L+8aU0+EU7XL6vmTGOG7FbWt2jWOkpfttazoOZpzWSRANitxa/2qcRvO3KhBHG3Rg90AlVcCqlGDgVIFgdoiAt5TcKuNqrckIkGzT0sUpoMUptr68Ws0ckhBsh9BtEZU+BRi2ZoEjk2ps6r0usBHFgW3G5QhVUo3NwK5LOBpFdeU2o2jm1lm3bh7S6NYkcDpOUxFIsS3+W7cnztyeaFMCgChtXe2A2EJ5HcB2eAgVXquF2IpKBwQ49XmxZWa510KAfg3YAR7S2/VK2vuu5iAaT/oi1gFKDVQqp44FN+ope/BljrPdysPlmC0nHLyX6Xewl+OonevxkdMMs4yb3y7HC6DbNBYyXFivHEcbNNsixHDmZHvDxTAZ2bIM11C2YxHDxYJtaWDISG43x6vjgPFsG3F31dbxz1zkv3tcP1z+M3g4PD2d/3JY/27/Y9BH5/8nwu0/);lineShape=1;fontSize=7;" parent="38" vertex="1">
                    <mxGeometry x="27.34329623413376" width="13.43037879425657" height="6.528432542546019" as="geometry"/>
                </mxCell>
                <mxCell id="42" value="" style="shape=stencil(lVfbctpADP0av2pW2vtzmv5HZkIKUwoZQtrm7yPXtfFq4bS8GXPk1eVIRzv4h7ft0+tmEPd2Ph2/b37tns/bwX8ZRHaH7ea0O+vT4B8H//ByPG2+nY7vh+fp9+vTiByffhx/jl/4PdnVSjWNVuI+pjeOsvvz4uuE3+8Oa3yhUhq8UEwAnyjUBh8pI7xQcA2eHRXgUCmUYmsQKQRg4Cm2JwhTktsGOZNIa1CoAoOkOQ2Ngc/EIOjEVNoYQiIHYojeZilGEnBCCJTasqUAg/aJfMuL7EnKbQPNSeLGoDA5BgY8E2ExyJRA0FpXk1YlSwEnMJO0LikbI+BSpthyVdlegUeOXBuBdlMCOVK8s/gIAlC8t3gP/eFo8VwR3nd4lxE+uS4/8PtmVox4wFKeu+Q/v88U+B7/ufMf50cZKvfkX/FdPlF91Z9q8Yg/TLH7fgFNzOQ7/lSP8H+zt8bD+ua2vuwWit8wiF3BakR46RwqgEDaAF2BMwjYzRNqXTDYAD0+wHh7fwQ2cB8vwwHR5xPN3K5gY4PBhrGEUDwkaE84pGPXCM2AD9caRmAD34dPVlY1Xg8arBP6GnGDLaK7kjDkkFbMeKQiiTKkGiatS0VJAlzyYa7oIvRYVcOyB6xWCQYkimJlLwZ4QtKgWxqFOCvzdYNCsU2rri8ZrXTRNoKuLwGcUMRKsXJL0FqarZbp+uIQlVQsW67q4utBWmuYqXbZrD3arPs1Fs4ipb60zenw98usjRe8AKYqPhSDR8yu3aLvoNiPN5UOjwpQ7bDDWjaOEus/mr2jVFSLR/HqLmD9Yex/EZt/7I/hj8OzbtkFLviAZrXr1l0HxfXuq+g/8fpwufe+7Pb76dq8/t/ek/XVdMf2j58=);lineShape=1;fontSize=7;" parent="38" vertex="1">
                    <mxGeometry x="8.538293097297753" y="16.56522440687911" width="4.592531380150672" height="7.765862021405667" as="geometry"/>
                </mxCell>
                <mxCell id="43" value="" style="shape=stencil(lVjbchoxDP0aXjXyXX5O0//ITEhhSkOGkF7+vtpSA5Z3D+Rt2dXBuuvIq/Dwvnl6W688vx8P++/rX9vn42YVvqy8375u1oftUZ9W4XEVHl72h/W3w/7j9fn0++1pkpyefux/Tv/w+4RjimUCef7TXjj378XXk/hu+3ol7im6TtyT5GXxRCV04rm9mBUXKrkTd0wM/t7p6b4HxGbPPKBQjT2gUgEAH4n7E9SE/29mAYFJ+hOCp5oAQMhJB4gMbYjq1NoDhDzwagoUekBKUKXMlHtADhQjABRKvZeK2sDLgBIoG4BmBnBrEZLUAcTDRJVArk89ye3MeUCm1J9QtRRAHKSS72uhaqQBoDryfa3VRCwA4K3RVZUEcaiarQagkQFemhQwNkjz2xJAxAISskHjGi2ggtSYNDaACitOP+dgTxBkQ7Vd6TZARgAyulId3ForBhRrNIqDY+2MbBEB+bU2Da4A8YYR2QIyyj5103ACaq4TYLBBMKAMAJhMqvF4AjY6jQBUQerEMHgJhzqIBSScfWGIQwBTcfYEh1UabWCskvWStIy/Nw7S5uS9kZY26+/NJYHUZCZbBU7F2XqA7Xuu4jwwer6oI7Z67BvpRqNxFoAo2UzvqzcjNwBu1OgnAaX1rQtNPDtuaQgZujEZgfyaGhu5DgSevOOIqMivwfJEBXgUOT+UUMEN3w2zPUGj5Zz/Z0BoVbhEmbxpNAzbgHI26dNV1AZQc0r7Ul9CcuZES8TSNMui2YK4biFvAI4c4rpsm2WOjcEv0W/DRFOGE0IJfuoBSvARsQy61fTZGl3jpktLSurjEHCkvX7uU2Pa5PCilfsTdLFMIPl0lTO0zyXyKFvt4qq7Isru1BrpOc4UQRB8WzzPHoJ9VVeFvjgZDh+2/85UQAqxXUJ1QcPiVpmElbHiqNWxbStMATQ6FY9GHIVVxasRRzyYW61exNGFAduVjeFqwba/4TGjjhiUAVXI9i6F2/a2JP6Zm5qb4vpwuRR62e52pzul6+/2EklfnS6gwuNf);lineShape=1;fontSize=7;" parent="38" vertex="1">
                    <mxGeometry x="15.15067034740025" y="16.73338759431124" width="14.4058144281356" height="8.47192522351325" as="geometry"/>
                </mxCell>
                <mxCell id="44" value="" style="group" parent="34" vertex="1" connectable="0">
                    <mxGeometry y="15" width="70" height="40" as="geometry"/>
                </mxCell>
                <mxCell id="45" value="7" style="text;html=1;align=center;verticalAlign=middle;resizable=0;points=[];autosize=1;strokeColor=none;fillColor=none;fontSize=7;" parent="44" vertex="1">
                    <mxGeometry x="40" width="30" height="20" as="geometry"/>
                </mxCell>
                <mxCell id="46" value="1" style="text;html=1;align=center;verticalAlign=middle;resizable=0;points=[];autosize=1;strokeColor=none;fillColor=none;fontSize=7;" parent="44" vertex="1">
                    <mxGeometry y="20" width="30" height="20" as="geometry"/>
                </mxCell>
                <mxCell id="47" value="5 is bigger than 4&lt;br&gt;move right" style="text;html=1;align=center;verticalAlign=middle;resizable=0;points=[];autosize=1;strokeColor=none;fillColor=none;fontSize=7;" parent="1" vertex="1">
                    <mxGeometry x="120" y="-25" width="80" height="30" as="geometry"/>
                </mxCell>
                <mxCell id="49" value="" style="shape=stencil(lVldcxs3DPw1esWQBEmQz076PzwTp9bUsTOO2yb/vnvV8CyCp/XkTZaBE/G12OWd9O7H4/33h1MKP95eX/56+Pf85e3xpJ9OKZ2fHx9ez2/4dNLPJ737+vL68Ofry9/PXy5/f7/fLLdP317+2Z7w8+LXJYXNKYVfly+ChPz/F39czJ/Oz1fmMUtVZ9+V2Hex2T6JkecnlRgn+yyaiL1JqJN9lULOo1FKnuy7aCD2VWKa7GOS1m875DD+vTvgiOREuYiVOUNRtN12KEHyfKRUpFXikKW3yUGDJJLU0qXMTaGoAgm6qq+yNglGHGyEuJc5SiZ9YWizOeicJZIsWZY01yFXGoOZ2NxJuUmKtx1aHJ22O3TppJdakToHXfCIQhzwvDmGohKIQ1dp7heyGDlSN4lz0KXSoDvwwmYHG5U5BoAAQJmbCe1lpHK9jU7YRzqO9jp2KKObdwcdqHbsECS6X0B/k+5ryOtc6lpESSGsDlTcHerox+OBQKln3NtGhBwJIapzaHSCUNjqgkYdSKmBMw6YLNLdACSLc9CWBlTdwko3o6bSCZJpkT53nxUpBGc0SZmzhDFXEvS2D+eBsD5G5NihSphjaDxL2HBpntGW6ARhwxbnkPnI2YCh3cHGVj12QOFcDF0yc0Bd5yP1OJrleOIGzu32eYzgcd2kznXu+0q6YZ+KtzdWtYGKV/aMxiQJc7xXsHacIY9h2w+QA4Wxwa/sG6kxOMASQCH4AsRb7BkeLaANVO6kwMHTNthXfv7FnvE85Me8fSDnR/5dPo2eP/kp7nytoYHSYk/Oox5WcH4GK+qpwrYVyXnUrw/YM54N+6U/GWEDwVsGMtOB9PXtI6Ib+exLfzZq7zZH7zT/UeoCENw+LPlh5wmLrOgDwm7NS/P2jJ1iHpd8snqFwROv+4EA3LKJP+i337WvC56k0YHHjEuay+e+BY/rFf2GaY1qHAhZdUuy0ApjqzolCFbIIPddSV8xg8IwZdG+4B6VkZXqUW4TMUz9LrBuXDrqzsd2h0zVLHRfcQ6JUomsg4TuDmGQ7WOH7qVj5VBUitfLoNadidPkRRHIO6sDmLfN07DJA6Y1y+KQqWIBRdS5vcH/I3NoHmAgoti9BebRtTccAunWvqQVuq4x6Zg9SYN0bAQDwCndiELDUJlmgzNdy18msNWnFQI7Ml3X/XVT4Zc1qLSrA/q3kCzZsqmySWbd2rwQ3HQYg+I8mNnukIaoP3aIHjUw5Qy8USZHryHcEnNIXpBrpBcdyInbt6nSiw6E6Aj2O4U4BjLzyLfJKlJpQKWrdORiNu0M7V1USCUxpOxlGscxLCCdf4CDPQJ0QhM7kjwf8eWZFCYKAM1rkEi7yDwFjhQtoOvVmbOGML+cIx3L6tsn8uscT5d5O+Pp/hKeib/lcilQIgLiYs6cQpbk7szZjaB5ZRaoMFvQKtAt0/ylLJfdv/k240NzfHh/cfL1/PR0ee9y/X//ogVfXV7S6Of/AA==);lineShape=1;fontSize=7;" parent="1" vertex="1">
                    <mxGeometry x="149.5918321656133" y="12.292569495209818" width="2.967882577242774" height="5.62528136996488" as="geometry"/>
                </mxCell>
                <mxCell id="50" value="" style="group" parent="1" vertex="1" connectable="0">
                    <mxGeometry x="20" y="5" width="70" height="55" as="geometry"/>
                </mxCell>
                <mxCell id="51" value="" style="group" parent="50" vertex="1" connectable="0">
                    <mxGeometry x="10" width="50" height="55" as="geometry"/>
                </mxCell>
                <mxCell id="52" value="4&lt;br style=&quot;font-size: 7px;&quot;&gt;" style="text;html=1;align=center;verticalAlign=middle;resizable=0;points=[];autosize=1;strokeColor=none;fillColor=none;fontSize=7;" parent="51" vertex="1">
                    <mxGeometry x="10" width="30" height="20" as="geometry"/>
                </mxCell>
                <mxCell id="53" value="3" style="text;html=1;align=center;verticalAlign=middle;resizable=0;points=[];autosize=1;strokeColor=none;fillColor=none;fontSize=7;" parent="51" vertex="1">
                    <mxGeometry x="20" y="35" width="30" height="20" as="geometry"/>
                </mxCell>
                <mxCell id="54" value="" style="group" parent="51" vertex="1" connectable="0">
                    <mxGeometry y="13.918021306431228" width="42.19624544701863" height="27.816055047083545" as="geometry"/>
                </mxCell>
                <mxCell id="55" value="2" style="text;html=1;align=center;verticalAlign=middle;resizable=0;points=[];autosize=1;strokeColor=none;fillColor=none;fontSize=7;" parent="54" vertex="1">
                    <mxGeometry y="1.0819786935687716" width="30" height="20" as="geometry"/>
                </mxCell>
                <mxCell id="56" value="" style="shape=stencil(lVhJchsxDHyNriiAC0ieHecfrrIcq+JYLtnZfh9MVByL4KgT37R0c7CjObt48/p497LfBX59Ox2/7n8e7t8ed/HTLoTD8+P+dHizT7t4u4s3D8fT/svp+P35/vz95W5BLp++HX8sJ/w681qjFhZW4N/nX5ia/v3h8xn/dHi+xBcqOuATxQzwiaQO+EpVAF6IZcBLoJCuE6pSzSNBSQMgCOlICEIFPKHk/vdKKJSAz9oojjGKkRIwSQNVHgmNEl8nZKXcxiwkahUQmOrog/3CgJDM6TgSEmkBBKHoCJUyiFIsPnEqPQzbhEw8+qCph2GbYGEda1sVRilOxWepFPCE0LxJRSiD9glWrWUkrA2yTbCojyYV7R27TQiUxoYrjQpInDU8jybVAPtBSs/rSsiUIyBY4sbyrhX2tLV8Hn1oTAVMDeE+hFZC6IHeHgIUx/6xOVWAC0pl9KApBZBn8bVtcxaNPaua5PENRYjCaI8w9yBvEqb+Xx4A6o4py+QAxIfp/ALKdCo6w2dovyshw6MEGH5KAEN7gvO3wmHElNTjFRSQ1W/z+AzsEZLk8QlMIun/Xp6PerKX46X9aHBN8ay9oq7gpU3xh+f7+NsSBQ1j50ePR9tGqE34AvE61U+DDRzDhAf5WlXW/zewTgFCe4A3DCqwgWU6P0M8zwkDAeXefhd4gf7KXHBgopu/xeMV2v8xfCZx9mdKoCBs0bsGiHDg1glvJQ78FdMqjmAhRh0f/YiotsjRE7SftxJSN3KbUP3SMCUhoCaWrTSaZFolIHET/RgyNRQRIfcpshIiLOtF2jv5ZK2KfDCl7lRpxapUvEmmSiNInF0e8jgr1EoJCWXtl4cLZY3Eflxn26rdC9x+dtuI4xNy7AN2m9D6BWi9sDTodLZ+c/fMRAEpNPESMOKNpqUHcSUEUpA4U+rBXRwVisbKfonbmkAixHR0GPvBpDOSgXUKq+D7hw2V7KQ4vH7YkGsuqlSByzZEeUwbw5tvq/71gAkxMJMM77LMcMIsKsjbw/h8p9PWPbeNb35G4i2+qNbi8SiezeeL+9i/hldvP7rALqrexxPN00V0eHxCO4Qn4W5CBlT0u2x6x6NJ9OH3V//E24f3l2UPh6en87u2y//9yzX76fxiLt7+AQ==);lineShape=1;fontSize=7;" parent="54" vertex="1">
                    <mxGeometry x="19.564740664598645" y="0.16814491020784317" width="4.077038719613128" height="5.973885570734757" as="geometry"/>
                </mxCell>
                <mxCell id="57" value="" style="shape=stencil(lVnJUhsxEP0aX7taa0tnQv6DKkxwhWDKkO3v0xOX5FHL84CbPdab3l5v8i7cvD7evex3nl/fTsfv+9+H+7fHXfiy8/7w/Lg/Hd700y7c7sLNw/G0/3Y6/ny+P39/uVtOLp9+HH8tb/hzxjFFWUCe/7YHXP8/+Ho+/nR4Xh13lPNw3FECxyN5Ho5HinH7eCGfhuOFsgPKOBKjjaOaASBTGAXoEw8Aal7xA0CfBA8AQtUAMlXeBgT1yAgIngQAoiMejQ6FIgIIxTIGIVAp24AUrJdioQIkJFVgVElf4UHgspo4SkjqpQAAmVwdAZUKklBs4FQmp22AcHtfBwSqgKviyccRkCiCXBB1q5GQoQ2i2WNsKMSAfJIsNXIlJxBQRmqoGxCXJJOMKkmvCNcBQtlI8DDSoik/FiR1g0NeqpOERB4YXZjyyCW1KgIJxU0qCSXApeIpj/RWqxJSKdh8WKwCbi2xObFXSuUvkqAJZAC+ses6QCxbVcmMareaaCQkcsgGzWBT7ZVdgBrV2XxQmciGqnEwAJUJUrRqyo9cUpkJSVCqGUAgB7xUs+23NTZ2XQcIyRgHfYUDKVqrzelaqCIJtdW5DqhwBlgAxQI8yAfHOlSwRUQUahVRLQCNAgsgWYBgq62bKmzUtdoGcfHDFsDUypUfthA5TCJACunPKVsAKgMLYAqEIL5W29qXV2AJMyBgNsWZTSjnqi00C1+xl7IxujS2bAKmFIJ1o3Pt4wBT+xaVcBzMXLkYjW2oMrkVkO96koZ3CseUpKgvXti8Zh8OdZ1yruBQl89mkOm8H0nSyYh36kCaKw2uZZ8ESNuqOkCIkUraQoyE1FrlVp+z3Ii4C4WpbXk4HevPZumojEPNluDa3NHSUSa36oyDNq0yr6PqNzwzsRmBIuxaOiGVkUsFL07L+8aU0+EU7XL6vmTGOG7FbWt2jWOkpfttazoOZpzWSRANitxa/2qcRvO3KhBHG3Rg90AlVcCqlGDgVIFgdoiAt5TcKuNqrckIkGzT0sUpoMUptr68Ws0ckhBsh9BtEZU+BRi2ZoEjk2ps6r0usBHFgW3G5QhVUo3NwK5LOBpFdeU2o2jm1lm3bh7S6NYkcDpOUxFIsS3+W7cnztyeaFMCgChtXe2A2EJ5HcB2eAgVXquF2IpKBwQ49XmxZWa510KAfg3YAR7S2/VK2vuu5iAaT/oi1gFKDVQqp44FN+ope/BljrPdysPlmC0nHLyX6Xewl+OonevxkdMMs4yb3y7HC6DbNBYyXFivHEcbNNsixHDmZHvDxTAZ2bIM11C2YxHDxYJtaWDISG43x6vjgPFsG3F31dbxz1zkv3tcP1z+M3g4PD2d/3JY/27/Y9BH5/8nwu0/);lineShape=1;fontSize=7;" parent="54" vertex="1">
                    <mxGeometry x="27.34329623413376" width="13.43037879425657" height="6.528432542546019" as="geometry"/>
                </mxCell>
                <mxCell id="58" value="" style="shape=stencil(lVfbctpADP0av2pW2vtzmv5HZkIKUwoZQtrm7yPXtfFq4bS8GXPk1eVIRzv4h7ft0+tmEPd2Ph2/b37tns/bwX8ZRHaH7ea0O+vT4B8H//ByPG2+nY7vh+fp9+vTiByffhx/jl/4PdnVSjWNVuI+pjeOsvvz4uuE3+8Oa3yhUhq8UEwAnyjUBh8pI7xQcA2eHRXgUCmUYmsQKQRg4Cm2JwhTktsGOZNIa1CoAoOkOQ2Ngc/EIOjEVNoYQiIHYojeZilGEnBCCJTasqUAg/aJfMuL7EnKbQPNSeLGoDA5BgY8E2ExyJRA0FpXk1YlSwEnMJO0LikbI+BSpthyVdlegUeOXBuBdlMCOVK8s/gIAlC8t3gP/eFo8VwR3nd4lxE+uS4/8PtmVox4wFKeu+Q/v88U+B7/ufMf50cZKvfkX/FdPlF91Z9q8Yg/TLH7fgFNzOQ7/lSP8H+zt8bD+ua2vuwWit8wiF3BakR46RwqgEDaAF2BMwjYzRNqXTDYAD0+wHh7fwQ2cB8vwwHR5xPN3K5gY4PBhrGEUDwkaE84pGPXCM2AD9caRmAD34dPVlY1Xg8arBP6GnGDLaK7kjDkkFbMeKQiiTKkGiatS0VJAlzyYa7oIvRYVcOyB6xWCQYkimJlLwZ4QtKgWxqFOCvzdYNCsU2rri8ZrXTRNoKuLwGcUMRKsXJL0FqarZbp+uIQlVQsW67q4utBWmuYqXbZrD3arPs1Fs4ipb60zenw98usjRe8AKYqPhSDR8yu3aLvoNiPN5UOjwpQ7bDDWjaOEus/mr2jVFSLR/HqLmD9Yex/EZt/7I/hj8OzbtkFLviAZrXr1l0HxfXuq+g/8fpwufe+7Pb76dq8/t/ek/XVdMf2j58=);lineShape=1;fontSize=7;" parent="54" vertex="1">
                    <mxGeometry x="8.538293097297753" y="16.56522440687911" width="4.592531380150672" height="7.765862021405667" as="geometry"/>
                </mxCell>
                <mxCell id="59" value="" style="shape=stencil(lVjbchoxDP0aXjXyXX5O0//ITEhhSkOGkF7+vtpSA5Z3D+Rt2dXBuuvIq/Dwvnl6W688vx8P++/rX9vn42YVvqy8375u1oftUZ9W4XEVHl72h/W3w/7j9fn0++1pkpyefux/Tv/w+4RjimUCef7TXjj378XXk/hu+3ol7im6TtyT5GXxRCV04rm9mBUXKrkTd0wM/t7p6b4HxGbPPKBQjT2gUgEAH4n7E9SE/29mAYFJ+hOCp5oAQMhJB4gMbYjq1NoDhDzwagoUekBKUKXMlHtADhQjABRKvZeK2sDLgBIoG4BmBnBrEZLUAcTDRJVArk89ye3MeUCm1J9QtRRAHKSS72uhaqQBoDryfa3VRCwA4K3RVZUEcaiarQagkQFemhQwNkjz2xJAxAISskHjGi2ggtSYNDaACitOP+dgTxBkQ7Vd6TZARgAyulId3ForBhRrNIqDY+2MbBEB+bU2Da4A8YYR2QIyyj5103ACaq4TYLBBMKAMAJhMqvF4AjY6jQBUQerEMHgJhzqIBSScfWGIQwBTcfYEh1UabWCskvWStIy/Nw7S5uS9kZY26+/NJYHUZCZbBU7F2XqA7Xuu4jwwer6oI7Z67BvpRqNxFoAo2UzvqzcjNwBu1OgnAaX1rQtNPDtuaQgZujEZgfyaGhu5DgSevOOIqMivwfJEBXgUOT+UUMEN3w2zPUGj5Zz/Z0BoVbhEmbxpNAzbgHI26dNV1AZQc0r7Ul9CcuZES8TSNMui2YK4biFvAI4c4rpsm2WOjcEv0W/DRFOGE0IJfuoBSvARsQy61fTZGl3jpktLSurjEHCkvX7uU2Pa5PCilfsTdLFMIPl0lTO0zyXyKFvt4qq7Isru1BrpOc4UQRB8WzzPHoJ9VVeFvjgZDh+2/85UQAqxXUJ1QcPiVpmElbHiqNWxbStMATQ6FY9GHIVVxasRRzyYW61exNGFAduVjeFqwba/4TGjjhiUAVXI9i6F2/a2JP6Zm5qb4vpwuRR62e52pzul6+/2EklfnS6gwuNf);lineShape=1;fontSize=7;" parent="54" vertex="1">
                    <mxGeometry x="15.15067034740025" y="16.73338759431124" width="14.4058144281356" height="8.47192522351325" as="geometry"/>
                </mxCell>
                <mxCell id="60" value="" style="group" parent="50" vertex="1" connectable="0">
                    <mxGeometry y="15" width="70" height="40" as="geometry"/>
                </mxCell>
                <mxCell id="61" value="7" style="text;html=1;align=center;verticalAlign=middle;resizable=0;points=[];autosize=1;strokeColor=none;fillColor=none;fontSize=7;" parent="60" vertex="1">
                    <mxGeometry x="40" width="30" height="20" as="geometry"/>
                </mxCell>
                <mxCell id="62" value="1" style="text;html=1;align=center;verticalAlign=middle;resizable=0;points=[];autosize=1;strokeColor=none;fillColor=none;fontSize=7;" parent="60" vertex="1">
                    <mxGeometry y="20" width="30" height="20" as="geometry"/>
                </mxCell>
                <mxCell id="63" value="" style="shape=stencil(lVjZctswDPwavWJ4H89p+h+ZiVN76toZx73+vmA1lEVQXDtvsowVCCwWgDTZp4/9y/tuMurjejl/3/0+vF73k/0yGXM47XeXw5WvJvs82ae382X37XL+eXqdf7+/FMty9eP8qzzhz4xT5H0BGfW33lDq/42vs/nxcFqZG4pWmJs4Nk+kYmOeyISxufakUmNfzpfBcRTZ9jwmU/IAECjmBmAZAI5kHSnXADyHrMcAp8m3RwqKAojBJcotBRFz4D1F1QIC2TQGBE25DToth9wGRAqth2QpgqCjodASlxwFwEOMZIQH5h4A+MQ6SkD5OQQ48j0A8JDiBsACD1mR9h3AAYAhmz8FcJXXVVo1AoQurYYyiiFLD5ElCkqDAaJhMABmKVM0LSDDJpAXQS4xqKqQESALgIUS1WoR2IqIBCRXXAgiEjkcRNYNgKslYw+iMXG1JNBaGRDaPsPVojHABQlAGmWASRKAuj0DdEt1tnUAbAOSbExZ4xiSTCvzEDEgCcmFesihhzatXEweFBMHrdqgS6sCfaZkSSiImcGSs0JBqTaSoUaVBBhcfCFKAJqKRaMiaJ7EOEsyrYbcHYAgzsFOtiVq7uhgLBYX7WgvHR0TkQTAVIkM8yrq29bEDZkTCnJwAdoGoCOF2t4XQMKSc+SMBETkoZtyK2oeHKT3EP2svnXoB7eB29R4cN8o7AMm+o3mNvmGO1OQALQNhD7oBDVU9j5RrwEOd94s5UzhNKBlN9UZtVJpBDHwduxaD9GTA8RZK2MIHs4U3vCF5ryDmjPLPl8BztVmtd1pnNw3rIejOkp7Y/FLinzJ0gGuWN07HNujHqCkosvzAWmq7s2L/VInA3vd7g2cMQ/UzFoXz7dQ/Wwv8qNhWXeDIcMXgc483jNvT8M7PSC3C9be4Urk0lT8Y1Th1bmrBMbDQvjUx4K75nxx+y7xdjge588a6//ldwy+NX8Dsc//AA==);lineShape=1;fontSize=7;" parent="1" vertex="1">
                    <mxGeometry x="169.68420760032393" y="17.4467950570712" width="19.12216908046709" height="1.2879189724197821" as="geometry"/>
                </mxCell>
                <mxCell id="64" value="" style="shape=stencil(lVfZbhsxDPwavxIiJep4TtP/CBCnNurageNef18aC9lLrXeKvK29nKXIGR7axKeP3cv7diPh43I+fd/+3r9edpv4ZSOyP+625/3FnjbxeROf3k7n7bfz6efxdfr9/nK1vD79OP26fuHPhIvU8hUk4e/0R6A8/fF1Mj/sjzNzFqrF2TdKad3evs/enisxcBCZWBxAEoWwDkiBKjtADFTaOkCZavWAQi2uA3IkVQdIiSoIuihxcgDzKXUdUJWiD1ozFeChST9xB2SmBDy0QsXzkJUayBKH0NPeEYUpKHBRqXkXJeMzpZ6UDqhMEVBdC6mn2hIXEBGNxB+pVooMAIHYB92YmgAx2QE8Ea1RATGoBa0joIEsaaS08NBABan0Cp4BUE0bIMgIYBQDkw5NwNIKeDBAHI5UKBUISJ7plklRDExlyJJSQcQJSR4BSEsGGORt+lVMXFkAImpMt+/NPQC16qJtGKAh4rS/ngWtoPVZGxpK1HiATFvJDx4KCQaM9WADAh1JqeYRgNq3AUamGyk6kmV9UQ8N8RB7yd+G3L17roqJRxdwaJlcFwDUyawgchvTlDFgyVzBNRoHfedOzeqRFupDM+jamBY1CsUkveZnBQG78WcBufYJdZsouTfDxxPF5O95qNafQWOqaVxPbIoFkKUWSL0Hm7tIfBZi8iWXW++eax7qsG1op/JxDDazPHG2ngQQdIkk3oNVrYJlw76nHpAsS6Ab2+viCygJMaiHWPvyclsTE1wFxOrLAwR3Mlu1k18TRfq2/JgHql6sHPsAeGhvtHmtJrgH2HFkMGegO1uVvIoi1PVinYxQpAtz6SvE2mG8HBgqOoy9juGlxC4UntnQqX68O48jLcBWzb3z382RkmXcpfCosUmTRnOgsTiqPsCV/JPXx/+a28P9pvq2Pxymi+78/Xiztb+mW3F8/gc=);lineShape=1;fontSize=7;" parent="1" vertex="1">
                    <mxGeometry x="187.50750244580695" y="16.794722759297883" width="4.460006421175353" height="4.012649613194402" as="geometry"/>
                </mxCell>
                <mxCell id="65" value="" style="shape=stencil(rVjJblsxDPwaXwmK2s9p+x8BkjRG06RI0+3vO6+GHIuyJ0XRmxfOe+I2HGoXr77eX3+53Zl+fXl++nT7Y3/zcr+L73Zm+8f72+f9Cz7t4vtdvLp7er79+Pz07fHm8P3L9Wa5ffr89H17ws8DLkZJdUOZ/jr8otLszw8fDvYP+8fZvsbJPklVYp8lzPZVSiD2x7+HfVDp5TIgBQlpBiRpnQCyxD4DugQCyCo2v8EQhEYAeMPsszWxeBlQVLJNgGiSSVRLFsszoEhhgC5pBiQVJT7UOGJyBEQxkriKA7QZkGkemkqYnU6IEsl0i5LnPGyZIUdqRfpc29lESXF3lVhmQJTCAFGae0Oi7dOrqAMUCSQPvS9HqrThgiKxOiO6ZFJ9vUmeM1eCRHamLDqfqaBaMklElzJnroA1GMDG30dAoR1U8by5XAvCRGoDz6szz5Q3WKBJm49UdVT8eUDw1VdNAmOyLGX2oR4r/jwA5TqHtXLqA0moA5RBVecBJskBqnQSVgPPzGGtXSpx2oqnb+ReyZFsKY2WJBGnwe46s3GrNA8hj1IbAPCCkjyEIHl2GrxgBBAHzx3tO6UZG1k9sWcsg6ypt++k3YI0N0JfSeQCwOrygnrZXkcNnDpAUoDCzkuASK/htEuAEnF4oUjYG/EXo8rZN+kkwTh/9faMjXToiRN71vng5+U8iTRN8GNqs2dtLMkWe9bFgxRO7JkciUv9gF2pfXLx6bQj49KQfUTsgv1abyz+0VNKf4PlJK/9QuO/Pr8zjhvZ+Ut7SGpb7Gn9p+X8bH7rINjTeJL6RD8u+TLe78nbM2GnC+G2oRf+i33zgr8bn0nmFVTjBISZ5PQNxC0Ty2HRjZt8JilDzTn10cLIysXJPZNQ5U1v3W8IUB+Z+IBdszkxkWiZxub7DAqK8WJKfnBAo7G1KC+TaVOBJKxQ606jQWeyN2C1C0761sFmlzY15wMe0YnTWLxWNR7Z4lX8eCrGt5yw+BCGkDwPSF7hbDsLORIElusHBLowQPDbJhYv6jQS5wBcXKO/+rI8BuL0lgf3BugqElZobydME3YWXhouSqnQKNXlqgNbP6slrFF5JoHE749QOY5aIwJNfEBeswNwcY0dP86sYVyspeqnlSWqHtPiA9i2sTWqjiAeAXkomvOANMbfERDGCD4PCFL8NRu7NYvq7yGwQJPnb9w9V5LSZoC9uybkyzLsm7+GZAM0LpdHSqsI9u7+Cw9g8VS/EumY2Jfi7xKmdHjCvi7PZ5PN/HUcX0lhX9T7yxf97uPD5MXWgz7+bNBu18z+PGzj/Ydr6Tfs8eH1Dvxu//BwuEI//d/fmeOnw317fP8b);lineShape=1;fontSize=7;" parent="1" vertex="1">
                    <mxGeometry x="239.79321774672866" y="12.363469071066675" width="2.142005515488107" height="4.723527201854251" as="geometry"/>
                </mxCell>
                <mxCell id="66" value="5 is less than 7&lt;br&gt;move left" style="text;html=1;align=center;verticalAlign=middle;resizable=0;points=[];autosize=1;strokeColor=none;fillColor=none;fontSize=7;" parent="1" vertex="1">
                    <mxGeometry x="205" y="-25" width="70" height="30" as="geometry"/>
                </mxCell>
                <mxCell id="67" value="" style="shape=stencil(lVzbct02DPwav3JIgjc8p+1/ZCZO42kaZ5L09vcF61KWFtIqefOFOCIJYAEsoPMgb75+ePv58SHHr9++PP/2+NfTu28fHuSnh5yfPn14/PL0zX56kJ8f5M375y+Pv355/uPTu5ffP7+dK+dPvz//OT/h7xe52kLNUyrHf17+kkqI8t9ffnkR+Pj0aS8gQcpRQIJWIpBCae4J8VqgaGjxR7ZUemj+DI0I1FCqE+hEQNa/v/cJ8ewM5JZkhORuKZFDSw3dHVqYgIQiKNCUCKSQQNM1pHQtkHX9eyfw/ybPBXpIcEtmjuwJ1Z2hh1KIgIQBmh6hsSfkkEFAg5JbyjH0cRDIZvDjWsA+L+lRQKhp2BH7UQ/ZFMee0NYGNoEWMjmDqanAE3pQcq1mOeDTpvtOjM8woh0FzLoK21IOetS02W8iLmoC8XhoKUGJ8aWEQCYtNHboiDBjTivkDHYlxzMbKmQCGrpgcVufQyInGAsgtvUcY3rIR/c0HFRypQ2dzYCWIv2Ck229uQ4D+qBHjVmoGEQBZRnxtl5CJ/u3/x5dudZQid+I+3y7Mboe9FVHGAxb1m7X+hbp5+dQj/bTUmjk/vPCzm19ph7g15cFTRfr29Fhmt0n0W8O42g/rS2NX9wnhMA2KEZIqEf99shjLNpbT9ThS6jH83ah91MXQG3rC7XPGsYRT7p5HPfHo332QROpjvbcNQjFE0hyRlyofbFej/Yz0vrLBb6N4/0P8yCy3gBXjwYxeE7kY8CoITNIF4z2o9FE0AJfhSd0qgMLrVpQgIHoTGjgCWPlMFf5RD662bAEmpzB8hOIAxp5TuSAUdNKoK/SNPAczTR454FQagIsNEkMFbZkaM+wQpYhbAKFppqWX+vRNNRsiWjakoHaUWCwGiFh9qvm4SxeCtZqJkADbEWP0x6EIHCxlKKiQGchf8todgJMcTUHgSdszzwXKCcCmSjOKlpRJ0Bgz6J28U8gAha2UQ83AhlrtTuBgtCqgyJf6xh7lMeGpssQ9pompmGxErJBEyhEDxYs0TQaDQ+9hujMm+XLFi6h9DKPK0xguEOXpcpzAcUIZDBTWAhNJ8gXCS4NcYrjYGwhcEDUVRqyLKI1EOCKs3gDcD94GW8bAKi0U7Ga2cIHsCPD4gMxPrt1DOyRQqXpFYo70z07g1mOQPJmgZ2kDmabUMab/WYCZOqs1TyEpc+6VR+7fJWBsQmApmdCzA7dV9G+z7j5lrCEsVPdCBxvaUIbsdZ5BigChBfNHamIWSWxLLRjvlQ5w6P9pM5jUVQbFkoWkxg7MnEOBCpFb3WlQ92Kp0vzhto28WstiHxWzAszvrJAZccWCHuCOLqgLqc9F7B68mh8lhCx+nlCL2wp0RTOcAk0Lbo40EvkOz5BzLoYGA90INmA51zAcduylb1XcF8c08aqUAN3OZ4hc9pmbCzTJjAozAxHBORGC+mR0IFy4SErLlPbBDItXburXa0qYmmoRYMCHQDlT2irQbBjnln13TdSd8dts4DSXVmWGjU+Cx8D6PZKWwYWPgCXZo+BeJyFj+aaQ4yfn4wQnCFT1Gi2YzhDoiHLwgc2hyJN4Sx8APOs9JImiQfp0gowV+VGP56g8/VtBcwtwN0VTHClleaHM3IAhi3ov6oRI/RgqG8WlzMkysnMbh5omKKLra/H/URayMz1Cusr7y4CjRwXYF7eT4L1LIbYesH9027nwLgZ79qpseB6Yj8zzuN6lpvbeqDEIvVgW9/xfioJBnM97od2CXSR5Dv74fvHZjBtltn6hPbMIM70NdBfqL0NF2nu1ifnj0y/fV3f63ph9tMdpi/e6tK/nL6YPXRsc/ACeO4H7Z9yWh1DfaTJR9momZ2/cDwE3u/GH8dqynynvyty1JFSQT+6vrq8g6dO1bUhZDn0VbwDfyzUfy2eQiFRaRerZUy0Go1fzbWiBy30W8X7VIonbeNkdwkHM6DmEoLEPaw70tWSJhZiZuIHECfUJvrZrAgVKJikzFkRRic2pHXvkteO3fTXTskVdwdctiXgg1UdEfuJOfKqw1lezlTTQ1yZIhQbrdSC3GY22Vn1V5HRyZ32FGf7CgSUwqlVsAnmLHg+N7am466CpcxaxIAshSrOynbIQKStSueKGACPk8EJGkHursQV1a/YEEhySua90YplSimclXJ1vgU6luerG7aamQzn7uBaa6L92tlyOG6pZsokmAA0UiwYdWYaA5nm12h0LuCMr/LqzARwS0rbryYAvZ3GJ5vUtcEtIjGoTDEiLdVubMO1LSZNy+7V72lwbloxCZtBiUTpqQioejNHgYFpvwUlljeoG1/olY7JTYcAfr3T+SBzOSC++i0nCrYxEq29DGewl7+RnlfQ10Cg8B5BxCbbaLQFZngPMeu1P3RFQDbX0WIJscUsaO5MQOc9M4A+5ez3SEhBmGboZEvEmnky7mRLfWA3SHkWavkPDmF0ijOWYYG16lZ4nAtktFbzQTZO2Ny84isYngt0105VSjVbKh3dE1hU9I3zHRheVQ8w1Ka8uzO7/+IECArM+QIvQIDJYhqqWqkxWdSM7gnsXi2QQ2dkau6GY8sowLjm4ougQROgkrEKUk5/W0IFc0+vvcNTAenu0JxIFX+GRnFGMjIxWqmms4uKynvClpwDVzjbaGwE0xUEKhTvZ0WSUYAO3SnSncqLSz+errwgSO7NBeWManKDm0MpZWXlMI48DMrhW8GdYfTxpnm5HHgXRdmOBl6qBT1asSPnNicqGEmBHJTlDaxOrFiejBsSEHsKczKGIRLW3p3nky6iW3xUojA3St35oGfGHkff2kLnBrF2u61P9LzJZYacBHevEkwSiK4H+5wDX+R+4ho62tbX1VW5Wu8qDNZk8p+f10TC1f6P99M4Se2oGIvrjHSLWL9YWGepfMLRmnozxuvmLSpNgrPjMHkf1PXgrNSm06k4BDa7MIykxrDx2mW7wAeo1kqlCUXDnkiRVZhcrAc8KYkWqC7GiFJ7G2g/li2wpE7Rv6TRIdMU0eGlUAWbAEQMyy7oG1MJaXNJtGC2oIdvfSk/g2B6Y9fMBnDm8Du8uVZpCZIqHnr2lpmb9ZM5DvrW13BP4N3EvDX/d6wwfb9vewdrzzuzWXZBjio1itXZvSKQeMc+OwrWNENH093AchJa2UnGHlUSuiXLrfFaM3+51E8RZN629G/UZmqtJ+/sZpoEnrwVnHnJ4t87vnmCf7OZT7ucvDud6SuHJ29n51XfXlWzaBo3W2oYeqYAq5c70jtzS+wJHQfSTIDBjAlUJ8CGfatvaXOi2gQgX57+wPRwJsAShpMtCa0ETw4t9LWfk2sVGkNPFCc0KT8xDf6m/49/+cC9gP3w+l0H758+fnz5qoT9//G7EexPL9+rID//Cw==);lineShape=1;fontSize=7;" parent="1" vertex="1">
                    <mxGeometry x="52.45355134519514" y="6.991630955609935" width="8.33291330473321" height="11.978191807007049" as="geometry"/>
                </mxCell>
                <mxCell id="68" value="" style="shape=stencil(lZvZkhzHDUW/Zl4rcl+etfyHIkSZE6ZJBUXJ9t8b6Yms6broPi2+zQJUITOBiwsk6iX/8MfHX37/8JLCH9++fvnnh3+//vrt40v+8SWl188fP3x9/WY/veSfXvIPv335+uEfX7/8+fnXt99//2VJrp/+9eWv9YT/vOmNcuS+tFL479tf+tHr///w85v8p9fPt/LxqFXkW3os3+cxhso3kB9HympPAPl21KnyBeTLMdX+3kE+HzmJ/CB74tF0vYP2JxxB7RlgfxtHiSoP59Xa0Z09sP+tHsGtl+TzEcP32BOP6OyH/anjmM4/B8ibPxSVjyCft7k3/knywftPBfnSj9lEvmSQt/1X+zOst6Qj6f5k2P88j6r2ZPC33I6h8YXy5Si6PxniK5v9+vxK9ocj6fMn+E8auj8WQBPk25Gv/jz3A+7Ll70dWz6ahRAwKR31+oIYj0IKQT00pn0mdxWiWSwmlR0U9xXM5cWkhoccqwZlHEckk2yXrlFvRk5YtC2xXd+QTmC9r2C4csW5lHENU/OYneSkxKFxnBpuattudsrbFoFj1yNdz8As7LBDRf06x73H9wNH86RF3qRAU1y3yKbEnfZ/T3nbAQqcDWun/DgyPj9f7S8WZ7DetGH8lE9HJOA6wpV3lLIz1QP5dvWf0lDe8azCIVO3tVveMk8G4tHU/poQePsRrvbUgonptPaUb/j8qbhumTzD8w0283VDGwPpgs2rh7bEqJV2pj4Vyiab9xWycjljUxGSjcHckDeMna4eAemQbBw2DtxXaMcU+pTQLQyYxS96wXNb2UMInQUyIK/lpyIMZOyTua8QN7CdKTkclXK4YZEoJH5D2Rz6VCgbzh5l/XllvaMiOr6zglOBeaahs/CoMTHeFtxeTZpGPQEwcteImwkjbgHo1b2nJQnimnlbfCqcDn9fobk1mMOD8xXLeaJg9QuswUBOypvZMY3UusvJGwUqAA22JKanhRTskqGQVFCmQJR8lVzTKUA8GKhIjWAKEUwyUBlJFz1JISt7mVwWGUYEt60BDm5hxDWA7KTp4AwjhKSaLxEIGEZ0eUPBjGsYIUTbAohq2XH65qkQ8aTH0OJ0TKx2LOSFyhvMEA2eHlsrhqiFvPDmkRHIbBOLKESsqNYxSUU7MSmaI4hJ5l2DFt1cDc85bnblGj1iPMyu7LbZwYF7r/gSJtAQvReoXEO0FUy76w3XbW1xV2WPFMY1gOrEADIFAYFqMU2u0R0HLezeTWvhGjHiVvoQ1j2Ozs4nUFkqAtnCiOs5WN2A7p13WXcWMhNZpYFKkEqp8sEFpQ5WuhFfMlAZrpaMxO2HooaVH9RVWWTnukurfiJsba6eD4zedcfX2THoeNKjKDkxck0BZDgnIGB8P9EbkraGrAQh7m3AKK7BlM9w0fcWIRoMFoXxRcRJk5eaMmILYyV1fX6k3r17fsAj667XFrAT1l1vl4ullTZUPtB6u9YZYbOaR/KSCgMGgcl3fX6i8+raZgvIz41TyXlZxcAcTHrx3ELqLkdxT87sHxKSmANNvgpIHAlQyOSTwBY2AMwfZlZ52h9XviRsOfWTwd6s90k8Dt1P9n8XjwRYven5hs1KHuKJxktle6TXH7BX3h1fDlhJ2fmG74zH7OKR472pPJ6vI3UBW5zfK7/uVoVloj2rwpHqAMtAy3hCJNZdBaX54hQSIsTqmkiKLAhZxgsk5a0OF+2Rw7g4EYSMDEkj26K4wKKNbkVBiYqLtporulY/8bPp7rxWd4gYoCvH8xOTinan82DaW5WflYj30Ebdm/TjKwbnKqEcdU/0hrGP6aY4oLbInNqDsPIjUDUxXYFzruqRQheFJ6Xs1IzTIt/dhaCLsDqwsk0yYNE69s1NQRopVsuSTdPdJ3auP+zkxJl6xWbQ9Jfk5i3kG10z2wjPegqyrQaeeNSu/ToqJhOL0SB9kY7ZcJ7XvjfNIOxPTU1XC3mo/uiu15lxDbZEaXNMdj7LKMKADUiIco6oFHsdJeXQe+1XuoNZJGaoAk009ewWPZlWBU3rK6R4ZkdS0Apa2KVW7ygQk1ytH2HygblSHYrfC9yo0+4K8gWfcBD1BIkbBWoflalXvKsPTrcFbbOXG2fCYZykODNPCntXIU/XQ66IM9mlRYsgOoecNUMYOyA+Y1RBbwsiDhak8971BmfwQq/qncroOIqwZgsEXCsWGqvvILdnBV1jEXnB+8jzI66j1ScCU+xuDpIH34ynCpJZkqMAMiY8ZdIp70x8XyG70bdz3+4rJNd0nsj6YtTr58Z51+oFIXEGVZhGNce1jCXu0LuC9qQk1hmAylMzTWOh8rhl1W5wrTh+mBVgasYjy46yRoS8pKWGgWYCEI46LVo6MoCw735O+YK3o0GndZ90yx27LQE5j5uOzR0rpaDrzRXHh4Oir+Ex+U/c1exN5YbQ6KbAJl7H5R1+N6UklTBV9yfxLWpT7p8K7o+bxn7S55+aOlZLi0AxakCuwUAe4pEIM6jHMaGiRxZ5cM/+LWuOPPkWuw6PrAFNAnZH5G0bAkTxe5/+zPk8W5ddfsXGUHJDER1n5d5nvN8bVeR12aXvivx3DQULLOKR+aHjyrTODTXzVZEfmmZ5P5Rd8bz80Pd5Z35f3tXLdVPn+yjhhta5feSH4is2Iv3QfcVZSD/Uz7W1/2iAe03+o4SCTUX/0UNBduk/qngi7z7aYHv8RyGFLxLcRye8P/6jlor44z+aqZiV/Ec5lRv9Ls1UrvFdz6vixaT/aIn92X8UVfe07CP5ps8n/zf5qf5MLG74YeBnl+dKc7eBj+SL4gl2caqW9g2r4nvyxIq9PQ07lH693FTy+9mxleHPq2Pl5v3hnJf4m/725CO8p/L2w/sXf7+9fvr09sHg7f/1C0H709vXhfmn/wE=);lineShape=1;fontSize=7;" parent="1" vertex="1">
                    <mxGeometry x="132.182017533703" y="1.6018715463682156" width="9.393013709505249" height="8.096359966645226" as="geometry"/>
                </mxCell>
                <mxCell id="69" value="" style="shape=stencil(nZvbklQ3DEW/Zl5dvl+eCfkPqoAwFQIUkNvfR86UT/fZ7l5N8kYm0rEtS9pbkvspvfr24c2Xd0/Rf/v+9fOv7/58fvv9w1P66SnG508f3n19/m7/ekqvn9Kr95+/vvvl6+ffP719+e8vb6bk/Ndvn/+YX/jrRa8XN9LUiv7vl7+E7ML49y8/vyh8fP50VujjrBBcaKCQVaG7GkE+qnx1pYK8dz6c5LMbsJ/WXcwinxPIV5VPbgSQN/sVkc9w3hZdCCIf/H35OlzvJ3kzGOynNleTyNcO8mUtf5FvsP8aXSq6H7BnGS6rPT04XDH7V7UnnLcc2726L7BnHnpf5g/gP7ksd1zyBe8rR+e9yHewf7LwaOL/Fb6fytrukm8ukXxc7n6R72D/ONR/+rrA2/LNRZWneDRz+LM/2IJwv9NdzvLBu0QKQQPMMpYHjw5DPc4UegGFtjLaoWAxQCuYT8uWEhopFE1y9he6ZfteP3u1rdlphahuF8wRwS/MJlnykHcdHMOuSRLpg0i2wJTEVV2AyOnOn09gX/CAHFWBxkIjgonKypuHfEFPzev/HvLdddhPck2AKSxwviMfzl6XDWrBJywxnu2TLVOAl0ZX5PvDNfx+kkQXV6jekRd/KBmZhH3/bH+DBqIqGxCUzplR91O9axD2FrLn/VT7AiHBwsVDvmDAlE2+rxu5zSScP4d8C+j/9rXzfbXkCth/uHFOi0aNAvjnzBCyQF9c4V4OkhMbuQukkNXleliXci+P9vMd94Toaqm9iMKRiu+BRzpbqddlhnvwFIUf25rk1kfWPBQ6K5SVyA+F4QqYdWbS8z0M7zKskLxywBEwlVqmrZsCxUIyUi8KkbfUFlYcCgl9KY0bChXCx7Kz4NPIGA85KUCZAgWc5fPhVYEQJFetDUZZXOa2QteIGwVRv/hlkysFYi6GARJAw8gPZLFy2ORKIcMZDAXqpkA4ZTAgNa8pDHCNGpQQjoaZ3oCgFFUgjmpIMMKmAGY1KIibAkVcs4vb7mHATVtdOjazFjh0M0YqKxSulNsNhQBJoI3t0A+aFRv1n0kAQrRH5WCDqX/PinGWKhP3T8T5LHsPQum2SNE1PoBZ7XtpgyzihYYGQpQMFKmEtyOKa5ihKS9ZrvbnFewqKc3YNSmXYa5qCkLmW0bnm6lXyuCIEXfJpAcdGyu13VOQEqxaXqJDb52mmp0HNjMDUhQCEixT6ELROzZ3LKnIxc12DG1pq/6L0WReIUs7JWD/xRTk4qwsiWTWpsnY6h6qS6bCeUsGxJUV6tmss3KDiJsK0tMayCpNoZ1XSHWRiR/cUmL6M+/hfNOT1PHFxbOCFSBEdC94cygw/TEFaasYV8a8ZPWING4ONn4vROUejO97OkPZVsjYTbU0oys8SDNZuffsm3CqTNpvwwXiQo9Lf5GqXIMTr/1gInz9Rr+5QfCY/NY/pq5QP6jXRZ5CZ+KnDCywWuoH0FzkkWNYtjhzbs+MoSkB8FiB9q728avxdk++DZWn/Q+1p8dkd6kdL/KU6ya76GJPKklMXgdMWIZNefUfAk2Trzo/Ibwx+aTyhOImv8cLyXetdxJmdpMP2/yE/V8oLc9nTD5r/BaW17YuAk3fCvPg2oPvSwZFXJr713ik4s7kexD5yvaPKk9lkcnXLX7Z36RL4BEl/6v87Gqc4yvj/G22HIQC4n1NTNV5FJKnqvn2QWlQF588/CHgBV8q6SvMplJ5bB4RKo6sxzZSNt7hyUabT0xQIhoxlBXMKSVtaZthzbkcWWloN9j4H+GeKTQZbyRsN49tcP2Iww5FysmS+dBSlz7g4cF7TdY5I9rMJc6HmMUEm0k6O1auUINg2vV8CCuIKCHNmzuvMOcoFHFjG7xUpAija+d/ttA4ICTHWGFKjzhMQdooVvpiJdu1MK2N3XWDheY5RqvyihZxcH/pax4KZVHhe5lSmEU7sOVeKpZM1v0Kwnu5Pm7jDhqxjaBt9l44bXgdcvajA3CXbsoKA3upk7+cfcnWpOF6r0r4B891b/TwEg4jetQnLPMq6dBeOdXsaVOns68uy1V7l1h/qxoPFiHUcW57i7ojjFq4SOabiQfuoW59yIkA1NMuq4l4KX09luM1bRcxsDittw5Br19K1x7EGFjwWyqVctwUcHyRt6b2wAgqUef+8+ZoS147yIOfduR+QyGBu+Z6w13JrIayeRtf4KuruMUo4262kBP/rlj3p67vqEyB+Eyq25YKniFl7Y1aQm/0FGxrmz+YMMaxDdsSIns8jHiVK4lsGO2URqRBBkHQfLUhN82YZdRZIWhgQRPa9mqAYTQUNwQVK3bBQ1YrzUcA9DYqKtkw3KW2+XyRtk1UkCUq7LaBzdeufcvG4VO1SdIyEriig7YWlpFvu7aS3DoQo7f3ArXiEOzoKRzyDOleWfqc+YJLeM3yEyhgP14fLT6Yo2x1icEEJaMtxVvRQCTJa7WXGaX8Qu7rsofe/ij2z4yPb8G0DgucuPQdT2KESkotUsH9Z+UJibuQdavPO9bnVb9vEYSEcJud8POXcWMSQm8iwjG1PhQaUtoQtveihR937e92E/Y8wvYQJER+t7tRLzsVtapCXznnx1pP0WurqmNFOLFPgAaLqdnTkayLrbP5glWfclPrOw59albRqdPRSb/IU409Y0qy0Erb9yiX2D/jg9ccdNTCD0Zz0dFGwtZx3kYnEZN62V6kBnxzUIr2UXgUUrYoNn+mJBS18vUYknV7Ve6RXtamoxwuz6xkjDrqClSTxn2URqPMtrWmOd7blnUZ5Nv205CA9p+cTUcnBKqTFG4/baE2Qt56idhgMlor8VXxvuboU1givnCZo2GpHnBUPUeZYv+ALzHm7GQbt+OT5q7D5/lEmKelZVOg+n6eYdsSzpe6lusGlPiDuabcJjzoLm0vYkyByMc+Qp8K7Eh9B3s6Q92wu6xW5D0FnboXdo26mTXzXLYohZoEg6Lhf/w08pGC/ePyS8z3zx8/vvyQ8/r/6y837U8vv/pMr/8B);lineShape=1;fontSize=7;" parent="1" vertex="1">
                    <mxGeometry x="241.09290719444482" y="15.532835188831314" width="8.01335673354024" height="8.352960703638747" as="geometry"/>
                </mxCell>
                <mxCell id="70" value="" style="shape=stencil(lVjbUlsxDPyavGrku/VM6X8wQyiZUsIAvf19dZrxIZJPNsNbMLvHtq4r79LN2+Pdy34X+e399fh9//tw//64S192MR6eH/evh3f9tUu3u3TzcHzdf3s9/ny+P/39crcgl18/jr+WL/w58USoloUV+e9pJVAO/xe+nvBPh+dzfCOOBp/Gwja+ULbfz1QSwCcq1eArlQ7wgaLFCyW+jO+dqtj7RqrgQL1Q65ZQx5bbhEglG0JkYmDSJsT2CmpTAXdoalN7h9iogyO1QK1ZpwXq5TKhdmK2hEI9A0KmYI+UBBOYkjVrTvBIRePA3iE3TIjUbOSVMFY2CVkoWMeVQkUAoVC1VioafMDTORJbK9U4PLNJSJ263aGqH0A6LG5yhA7DOyWfzxosKKETU7FmbYkC2CF2ym6HQgGE95LxwRIqCdohU3OENcu3CZHEZlzXW4FLa1F0+bBkOSCEPty0EjJV4DgtKs2GRq+wCIQ8YnMlaPyCWNI6F63jtHZmQBCfP1qbG6oylFwl1vwAJSB7J2hvQTZlEhtH2rsEfJ+pWXxgHm68QCg8bQB8xiPZz/AdhB1TKB7f4AU4ezzqneyDVHAvVHzyeAYBoed3Duiw7TDF5vENnidXj0f1l6lO3y/wPC4nFV9Rig1rnJ8flHeVImGyDzi/4sXbHxXGsBFvCcTDLI0E2idsxSe0p0znF2Af9iVuwUP/uo5/PYFTmzaACROnhGnwQD4gVD3DC/PsMFhQZnwAikXxU0Bfue8UoEgRqT3F4yus0J/D5ylA65gWtkUjVYfPMKD7KN8rPsL7huCHFdGahLr22hHXJtyHjbcJhcTu0NeVS0LCDQc9wSK0VGmnPMJQbJfEkCvrDZeJZTpxcqvBuh6L78SqAKGga0M4rIQ8lPM2QRuvO1IcubGtYlUMWStV3OtVWLtmWRuMbZXuTljrjISke57aQQ1j9NwmZD/VlU4JDTh9yIGVkOFwoAOT2EsXhkfSgalZx+UKW6AOTG6a0BkJEWryKjN1aFZ1k+tqCfuhTTpTRx50JI3NaglaqFAf1OnEDcsfA8l2HQs+HwJWajpsdPeqU4bdtgmawdbTWguRNpVJ/OLYk/WVZQ0lWGSWyu6eLPC7VPVxgYd9mXoDQ+21dOLk8IzescRnM5Yuinfil/G7mvigY1jwZJrmGE6LyyjTHB49bSxKy38fDpfixSPDYfFM+n0QOjaQOPV4zQHdPQxSQAEqXs0GOGx9+qH1Kl5/fLzqPhyenk6Pwuf/96/AunR6QU63/wA=);lineShape=1;fontSize=7;" parent="1" vertex="1">
                    <mxGeometry x="239.67258376993374" y="23.833443800312352" width="4.881791213204345" height="4.442691739931487" as="geometry"/>
                </mxCell>
                <mxCell id="71" value="" style="shape=stencil(lVjZctswDPwav2JIgudzmv5HZuI0nrp2xkl6/H2hunSkpbWevNnSrkRcC0AbvXt9fnjZboJ7fTsdv29/7R7fnjf6ZRPC7vC8Pe3e7NdG7zd693Q8bb+dju+Hx/P/l4cJOf36cfw5PeH3meeb+DKxgvvz/4po/Hfh6xm/3x3m+Co5LfBZXCH4Ij4vn6/SEiEkJASV7AnhcrsT1ElhR/JSlyZrE3WE4MQtbY5VQl4nVPFtgU9FtK3jsyS39Kk5lTw/dZd3fFGpuo5XKbrAVycprOOD5LDEZwnEQQFzqDnJJImClKU/m/aQXMVHCXWJT9JISpg/AZ+lEv9bgNGAIpFlRMKcM4KSiE0mD0fKhKBeUkablcQseokencqCnOwNcUnwlJC9BEiLJpGkXXFoQzUvkbiVKhUISRIh2G1Qoxr7Ia8SLDHrMg5V6ZFak+qQUDmhZTySZ3LkTF4cMhKRyOkVHgmNBMIIxaFfmYAZIQ4EFggjOEVCZjbUrhBzAnFTu0ju/EjMhtJ9MiOw1maE0UuOubWgzlgcWFFfJQRmtB0JIm3dkwjTZHRCQiLSN7l1LIjKA5eREBih9V42fwOzwZIvICHyeigDodyo0YBxcGzquVqjkQlNGwIRb+kGdIh6mYTWCMkjIbL8bjhZTSXHbKh9jpoTeG7oYAOb3YwwygZrKVNBDEfyN4r6cwR/RWeYW2vGacyuKEnXYtMmGF2oVhY/VFCjBWGdGmTDrMqk5GwWaDCeaK+ptWmjwvCQpPB5BtTYIsOSz4ZWSI1JSPjiAMI09W4mG5gZsypfGbs14AuY8gUJEU1WovZOIhgQ6fMHTbLphmWq3R2qs7CxuHeO2drgSTUHHEtsLWHnib1MLmtPou0zY0akLI34s+CsFwtdk1oXt8teWOla4oeR2zZPNkz6gH3HspzOhhFXVdt2E2tUGdt5oiYbHlqnaQ1LidwzpuMd7WqGB4sdHW2nzwUe8GzrMTzkkKUof35WwNPGX8bzM4nwFXckR0dIw8Pqb+fn+BIBH1i8qjTEJ3b+1sP/gWey7oeZwnN/fvZz0028/fj4tvW02+/Pn8bm9/FbmF06f0fT+78=);lineShape=1;fontSize=7;" parent="1" vertex="1">
                    <mxGeometry x="239.22383794066525" y="26.27322712907994" width="2.7070133123293894" height="2.7415953683575935" as="geometry"/>
                </mxCell>
                <mxCell id="72" value="" style="shape=stencil(7VrBct02DPyad+WQIAmS5zT9j8zEqd/UtTOO2yZ/X6hvqCcupVV96yG3Z3kpgSCAXUC6xA/fHj99fbiI//b2+vL7w9/Xz2+Pl/jLReT6/Pjwen2zX5f48RI/fHl5ffjt9eXP58+3v79+WpDLrz9e/lru8P22Tp2GZZH4H7cLUVxK/1759YZ/uj4P+FxGfHHaKD4N+JScRIaPecQ3V+oxPrsmAz6rK8T+7JIf8Gr2EPuTq3HAF3Ge4mW0vzSn5RgfXWoDvqqr+RgvaE+TE3ysI744T/xveLh/dY3sV5zoiG/dAwf4kBCf/TE+uJYRXyi+COKrMnya7G8UH0Z/Bu+dJwZ51/z0ABIQ3unkoEoSwGNALw4iB+ydhOkAKN5XxLOEWb2xwbOAm/HVFRJAfgq47JTePwPerhD7g/NjwFU5CSAI0LKm6EHC+9H/GpyS800ujPfP5jFiT8aCEmsvAbv4gudrVxLxT8X9huJaIP6xBBgD2q4Iy+DJQ4kfQJ5SsnPUPt7sHUscT+Al5QXwLGHM3AiU6rwQfMGI1l6T9gNoymBzaGELjGNGzjaXMc6ORkFjDJkPWFFP3sXxCUtYEZNSxDJtRgZyaGllxXVB64Vvf4FVzdGkZJsme8iCT8iha4v9BbnX8XVBpYFk/wbuVnMDSR2rDHk0SSvNNV211VqMYr/F/gLtBqwLCvWSNhfGcl0tPchJl+DieNI1dkbcXxCR0GqmhFYyMqZJKE+8VNaCtSnxjNJMwlXwUqXRaj6ZVaOQWLr7ZCNLGauZT9pY9CwcK9G9tToBIW7SnHhpoclJ6QdikgnRPDFJYwusro+bDrWT3f4C7XVu5XKXiVfbVOmlc9E+3vI3AV45HsS+UKo1fEZ7GBMavuL9AzsyS86GeHYAq/Te2MP839D/0pnlCD/5n0m7jZTeUOfJAxTwkSTyIqWBdigRLg6qgGeUcJfGd+lC7Z/EVOpa4wiv8r77R9wv448lARr6h92/oP2RJ0DBbj12tX2Ix4BmzX1by/ImQAk5GT5NCcnsqf3x/znBUFyfJXCaEpIViNZbh00BOol/xDO2X/IL/c+a4xkfnbB4eC++IhG3HoBHhAEi0BiGNX9GSejQ2gdSR6SnsIPSc/SIVhN0N0oHLAtxjzmTtWf1/gLF/kAzjaI6q0ahbjW5FMcwNYUUyLlVP025Ig0801c6FnbbFRsDFsU9mN8y06WxN5XbBcyk0A1YFxRa7Ewq6yRkmVTW0pN3q0vZgoSt9d1v+wsE611JVEHlhn2arlp4f4FiU2RGZja/Tb0ibrooNu/KHjnfOjfW/qaCUvlE+aaET7D+ls6Iw9Scpj7m3G+wazdgU2YYMcSMwmip9CRaY0D1HtZauD+FqL3yrguEjy0yFrLCB8XSG5q7dmFaSjxOooXPmaZab2HB5nxT8mQ+NpJp8OXp4G4ZfI3pbOTDwqjhaNw8WohFZWrQaq84+9mPcyZLJaZ2Mk4eNdAQSjgnsxrL5iERI87KXSMOFTxg41L2KkCQQ1ruDecB/uerj5+vPgb8/+3VBwao9n72AA+KpQkdKgVUBya6mEoTDIjC5zFr97/iA9WZEWWmJjofitgdmBphWjx1WbwyUqPz2DS9m+bvstPUffN35QmnByfv4uf7Cx+iuwR4PuFO0/Qj0AKUOuFu8FRd9uzY4Fn7mqcXK6FnxAE+T/ZwPLQEJ/YozsJP9qs79jN/Kr63OTmv+dsMHg/v//bjDG8/7h+afLk+Pd2+U9n+Hz9MsUu3j1rix38A);lineShape=1;fontSize=7;" parent="1" vertex="1">
                    <mxGeometry x="239.07889553421825" y="30.086425817280883" width="2.8720616518483117" height="2.970537719949575" as="geometry"/>
                </mxCell>
                <mxCell id="73" value="" style="group" parent="1" vertex="1" connectable="0">
                    <mxGeometry x="260" y="-1.4499999999999993" width="70" height="55" as="geometry"/>
                </mxCell>
                <mxCell id="74" value="" style="group" parent="73" vertex="1" connectable="0">
                    <mxGeometry x="10" width="50" height="55" as="geometry"/>
                </mxCell>
                <mxCell id="75" value="4&lt;br style=&quot;font-size: 7px;&quot;&gt;" style="text;html=1;align=center;verticalAlign=middle;resizable=0;points=[];autosize=1;strokeColor=none;fillColor=none;fontSize=7;" parent="74" vertex="1">
                    <mxGeometry x="10" width="30" height="20" as="geometry"/>
                </mxCell>
                <mxCell id="76" value="3" style="text;html=1;align=center;verticalAlign=middle;resizable=0;points=[];autosize=1;strokeColor=none;fillColor=none;fontSize=7;" parent="74" vertex="1">
                    <mxGeometry x="20" y="35" width="30" height="20" as="geometry"/>
                </mxCell>
                <mxCell id="77" value="" style="group" parent="74" vertex="1" connectable="0">
                    <mxGeometry y="13.918021306431228" width="42.19624544701863" height="27.816055047083545" as="geometry"/>
                </mxCell>
                <mxCell id="78" value="2" style="text;html=1;align=center;verticalAlign=middle;resizable=0;points=[];autosize=1;strokeColor=none;fillColor=none;fontSize=7;" parent="77" vertex="1">
                    <mxGeometry y="1.0819786935687716" width="30" height="20" as="geometry"/>
                </mxCell>
                <mxCell id="79" value="" style="shape=stencil(lVhJchsxDHyNriiAC0ieHecfrrIcq+JYLtnZfh9MVByL4KgT37R0c7CjObt48/p497LfBX59Ox2/7n8e7t8ed/HTLoTD8+P+dHizT7t4u4s3D8fT/svp+P35/vz95W5BLp++HX8sJ/w681qjFhZW4N/nX5ia/v3h8xn/dHi+xBcqOuATxQzwiaQO+EpVAF6IZcBLoJCuE6pSzSNBSQMgCOlICEIFPKHk/vdKKJSAz9oojjGKkRIwSQNVHgmNEl8nZKXcxiwkahUQmOrog/3CgJDM6TgSEmkBBKHoCJUyiFIsPnEqPQzbhEw8+qCph2GbYGEda1sVRilOxWepFPCE0LxJRSiD9glWrWUkrA2yTbCojyYV7R27TQiUxoYrjQpInDU8jybVAPtBSs/rSsiUIyBY4sbyrhX2tLV8Hn1oTAVMDeE+hFZC6IHeHgIUx/6xOVWAC0pl9KApBZBn8bVtcxaNPaua5PENRYjCaI8w9yBvEqb+Xx4A6o4py+QAxIfp/ALKdCo6w2dovyshw6MEGH5KAEN7gvO3wmHElNTjFRSQ1W/z+AzsEZLk8QlMIun/Xp6PerKX46X9aHBN8ay9oq7gpU3xh+f7+NsSBQ1j50ePR9tGqE34AvE61U+DDRzDhAf5WlXW/zewTgFCe4A3DCqwgWU6P0M8zwkDAeXefhd4gf7KXHBgopu/xeMV2v8xfCZx9mdKoCBs0bsGiHDg1glvJQ78FdMqjmAhRh0f/YiotsjRE7SftxJSN3KbUP3SMCUhoCaWrTSaZFolIHET/RgyNRQRIfcpshIiLOtF2jv5ZK2KfDCl7lRpxapUvEmmSiNInF0e8jgr1EoJCWXtl4cLZY3Eflxn26rdC9x+dtuI4xNy7AN2m9D6BWi9sDTodLZ+c/fMRAEpNPESMOKNpqUHcSUEUpA4U+rBXRwVisbKfonbmkAixHR0GPvBpDOSgXUKq+D7hw2V7KQ4vH7YkGsuqlSByzZEeUwbw5tvq/71gAkxMJMM77LMcMIsKsjbw/h8p9PWPbeNb35G4i2+qNbi8SiezeeL+9i/hldvP7rALqrexxPN00V0eHxCO4Qn4W5CBlT0u2x6x6NJ9OH3V//E24f3l2UPh6en87u2y//9yzX76fxiLt7+AQ==);lineShape=1;fontSize=7;" parent="77" vertex="1">
                    <mxGeometry x="19.564740664598645" y="0.16814491020784317" width="4.077038719613128" height="5.973885570734757" as="geometry"/>
                </mxCell>
                <mxCell id="80" value="" style="shape=stencil(lVnJUhsxEP0aX7taa0tnQv6DKkxwhWDKkO3v0xOX5FHL84CbPdab3l5v8i7cvD7evex3nl/fTsfv+9+H+7fHXfiy8/7w/Lg/Hd700y7c7sLNw/G0/3Y6/ny+P39/uVtOLp9+HH8tb/hzxjFFWUCe/7YHXP8/+Ho+/nR4Xh13lPNw3FECxyN5Ho5HinH7eCGfhuOFsgPKOBKjjaOaASBTGAXoEw8Aal7xA0CfBA8AQtUAMlXeBgT1yAgIngQAoiMejQ6FIgIIxTIGIVAp24AUrJdioQIkJFVgVElf4UHgspo4SkjqpQAAmVwdAZUKklBs4FQmp22AcHtfBwSqgKviyccRkCiCXBB1q5GQoQ2i2WNsKMSAfJIsNXIlJxBQRmqoGxCXJJOMKkmvCNcBQtlI8DDSoik/FiR1g0NeqpOERB4YXZjyyCW1KgIJxU0qCSXApeIpj/RWqxJSKdh8WKwCbi2xObFXSuUvkqAJZAC+ses6QCxbVcmMareaaCQkcsgGzWBT7ZVdgBrV2XxQmciGqnEwAJUJUrRqyo9cUpkJSVCqGUAgB7xUs+23NTZ2XQcIyRgHfYUDKVqrzelaqCIJtdW5DqhwBlgAxQI8yAfHOlSwRUQUahVRLQCNAgsgWYBgq62bKmzUtdoGcfHDFsDUypUfthA5TCJACunPKVsAKgMLYAqEIL5W29qXV2AJMyBgNsWZTSjnqi00C1+xl7IxujS2bAKmFIJ1o3Pt4wBT+xaVcBzMXLkYjW2oMrkVkO96koZ3CseUpKgvXti8Zh8OdZ1yruBQl89mkOm8H0nSyYh36kCaKw2uZZ8ESNuqOkCIkUraQoyE1FrlVp+z3Ii4C4WpbXk4HevPZumojEPNluDa3NHSUSa36oyDNq0yr6PqNzwzsRmBIuxaOiGVkUsFL07L+8aU0+EU7XL6vmTGOG7FbWt2jWOkpfttazoOZpzWSRANitxa/2qcRvO3KhBHG3Rg90AlVcCqlGDgVIFgdoiAt5TcKuNqrckIkGzT0sUpoMUptr68Ws0ckhBsh9BtEZU+BRi2ZoEjk2ps6r0usBHFgW3G5QhVUo3NwK5LOBpFdeU2o2jm1lm3bh7S6NYkcDpOUxFIsS3+W7cnztyeaFMCgChtXe2A2EJ5HcB2eAgVXquF2IpKBwQ49XmxZWa510KAfg3YAR7S2/VK2vuu5iAaT/oi1gFKDVQqp44FN+ope/BljrPdysPlmC0nHLyX6Xewl+OonevxkdMMs4yb3y7HC6DbNBYyXFivHEcbNNsixHDmZHvDxTAZ2bIM11C2YxHDxYJtaWDISG43x6vjgPFsG3F31dbxz1zkv3tcP1z+M3g4PD2d/3JY/27/Y9BH5/8nwu0/);lineShape=1;fontSize=7;" parent="77" vertex="1">
                    <mxGeometry x="27.34329623413376" width="13.43037879425657" height="6.528432542546019" as="geometry"/>
                </mxCell>
                <mxCell id="81" value="" style="shape=stencil(lVfbctpADP0av2pW2vtzmv5HZkIKUwoZQtrm7yPXtfFq4bS8GXPk1eVIRzv4h7ft0+tmEPd2Ph2/b37tns/bwX8ZRHaH7ea0O+vT4B8H//ByPG2+nY7vh+fp9+vTiByffhx/jl/4PdnVSjWNVuI+pjeOsvvz4uuE3+8Oa3yhUhq8UEwAnyjUBh8pI7xQcA2eHRXgUCmUYmsQKQRg4Cm2JwhTktsGOZNIa1CoAoOkOQ2Ngc/EIOjEVNoYQiIHYojeZilGEnBCCJTasqUAg/aJfMuL7EnKbQPNSeLGoDA5BgY8E2ExyJRA0FpXk1YlSwEnMJO0LikbI+BSpthyVdlegUeOXBuBdlMCOVK8s/gIAlC8t3gP/eFo8VwR3nd4lxE+uS4/8PtmVox4wFKeu+Q/v88U+B7/ufMf50cZKvfkX/FdPlF91Z9q8Yg/TLH7fgFNzOQ7/lSP8H+zt8bD+ua2vuwWit8wiF3BakR46RwqgEDaAF2BMwjYzRNqXTDYAD0+wHh7fwQ2cB8vwwHR5xPN3K5gY4PBhrGEUDwkaE84pGPXCM2AD9caRmAD34dPVlY1Xg8arBP6GnGDLaK7kjDkkFbMeKQiiTKkGiatS0VJAlzyYa7oIvRYVcOyB6xWCQYkimJlLwZ4QtKgWxqFOCvzdYNCsU2rri8ZrXTRNoKuLwGcUMRKsXJL0FqarZbp+uIQlVQsW67q4utBWmuYqXbZrD3arPs1Fs4ipb60zenw98usjRe8AKYqPhSDR8yu3aLvoNiPN5UOjwpQ7bDDWjaOEus/mr2jVFSLR/HqLmD9Yex/EZt/7I/hj8OzbtkFLviAZrXr1l0HxfXuq+g/8fpwufe+7Pb76dq8/t/ek/XVdMf2j58=);lineShape=1;fontSize=7;" parent="77" vertex="1">
                    <mxGeometry x="8.538293097297753" y="16.56522440687911" width="4.592531380150672" height="7.765862021405667" as="geometry"/>
                </mxCell>
                <mxCell id="82" value="" style="shape=stencil(lVjbchoxDP0aXjXyXX5O0//ITEhhSkOGkF7+vtpSA5Z3D+Rt2dXBuuvIq/Dwvnl6W688vx8P++/rX9vn42YVvqy8375u1oftUZ9W4XEVHl72h/W3w/7j9fn0++1pkpyefux/Tv/w+4RjimUCef7TXjj378XXk/hu+3ol7im6TtyT5GXxRCV04rm9mBUXKrkTd0wM/t7p6b4HxGbPPKBQjT2gUgEAH4n7E9SE/29mAYFJ+hOCp5oAQMhJB4gMbYjq1NoDhDzwagoUekBKUKXMlHtADhQjABRKvZeK2sDLgBIoG4BmBnBrEZLUAcTDRJVArk89ye3MeUCm1J9QtRRAHKSS72uhaqQBoDryfa3VRCwA4K3RVZUEcaiarQagkQFemhQwNkjz2xJAxAISskHjGi2ggtSYNDaACitOP+dgTxBkQ7Vd6TZARgAyulId3ForBhRrNIqDY+2MbBEB+bU2Da4A8YYR2QIyyj5103ACaq4TYLBBMKAMAJhMqvF4AjY6jQBUQerEMHgJhzqIBSScfWGIQwBTcfYEh1UabWCskvWStIy/Nw7S5uS9kZY26+/NJYHUZCZbBU7F2XqA7Xuu4jwwer6oI7Z67BvpRqNxFoAo2UzvqzcjNwBu1OgnAaX1rQtNPDtuaQgZujEZgfyaGhu5DgSevOOIqMivwfJEBXgUOT+UUMEN3w2zPUGj5Zz/Z0BoVbhEmbxpNAzbgHI26dNV1AZQc0r7Ul9CcuZES8TSNMui2YK4biFvAI4c4rpsm2WOjcEv0W/DRFOGE0IJfuoBSvARsQy61fTZGl3jpktLSurjEHCkvX7uU2Pa5PCilfsTdLFMIPl0lTO0zyXyKFvt4qq7Isru1BrpOc4UQRB8WzzPHoJ9VVeFvjgZDh+2/85UQAqxXUJ1QcPiVpmElbHiqNWxbStMATQ6FY9GHIVVxasRRzyYW61exNGFAduVjeFqwba/4TGjjhiUAVXI9i6F2/a2JP6Zm5qb4vpwuRR62e52pzul6+/2EklfnS6gwuNf);lineShape=1;fontSize=7;" parent="77" vertex="1">
                    <mxGeometry x="15.15067034740025" y="16.73338759431124" width="14.4058144281356" height="8.47192522351325" as="geometry"/>
                </mxCell>
                <mxCell id="83" value="" style="group" parent="73" vertex="1" connectable="0">
                    <mxGeometry y="15" width="70" height="40" as="geometry"/>
                </mxCell>
                <mxCell id="84" value="7" style="text;html=1;align=center;verticalAlign=middle;resizable=0;points=[];autosize=1;strokeColor=none;fillColor=none;fontSize=7;" parent="83" vertex="1">
                    <mxGeometry x="40" width="30" height="20" as="geometry"/>
                </mxCell>
                <mxCell id="85" value="1" style="text;html=1;align=center;verticalAlign=middle;resizable=0;points=[];autosize=1;strokeColor=none;fillColor=none;fontSize=7;" parent="83" vertex="1">
                    <mxGeometry y="20" width="30" height="20" as="geometry"/>
                </mxCell>
                <mxCell id="86" value="" style="shape=stencil(lVhbctswDDyNfjEkwed3mt4jM3EaT1M74zh93L5gXSoiEa3sP1nGinguAE589/b88LqbnHk7n47fd7/2j+fnib9Mzu0Pz7vT/ixPE99PfPd0PO2+nY7vh8fL79eHKlmffhx/1i/8vuAMpVBBzvy5vIhMzv578/Ui/7I/LOQ9eT/KZ7Mun9rXZnlPjtflrSGXR0DwAODJuBGQIgBksmkEFKCSc5QGGwIZoJIYzQpgwQlsmwJLQAGA2Jy4ADigktduFUACAAmTUwCgkk9UzAhgkEnBNo2XAAcAXuWSAIBbQyKjvMTAS6FQTMpoYEN05KMCBAAI5HXgMgBk4qBsQAVniVWkkVuTLmns1pTI3xSHbD7JJRSH7KhoGxBA3KpYI4FszYniEDiGNJNLI5UGkGTJINLFUuzrIThygJcKE/fJ55ksSL4yk0oDsG/U9jkgj+ltm5/X5EtvsyGDFCqNUj7kGQRB5EOf22IwSG2RT32UE2UQM5EfaFWahQWlYI0Y2AdNXIRYrx7Rm+wyBeTT0lSebcbMLYDYGyFcvnHCmEdzi1wDmAGAWU/yIukTkA3iEzPaEPEJ/72+9BKKgzT1OMYhAk6qgN6tEmlEMVWl3ga7WW0Dc0u24moLfXYzHBpEPo/V6XH12LE6DZYfepttdLBanUNbaHm1Wgl9jK1tI8RqrQ2AjClYAUQlNFZplVhigItzsJlzO/NKp26R/M0AaYV9mFPGLMwUe6OlmzLubLkvneIoAILJivNKgo1Hd+cyT2ZX9n+pDo9UUhOGqJTRCWqG2QDoKang+tdz2BZATXoVACKtZ8kaBzTeqmm1AgAn6Xm4AgBp6IlbAodYSc/0G3HQW8OGW/VesuFWvfmUBIlM71YVALJVb28VAHhJ74cVALykN9AaB6CS3nErALhVb9Elw/6p9/TagsEJ+iagkgAgMn3X8DEhX3eZUSdkoJGu6NJI4VN5dRmzGEhXACGpA4AB84RwZWqbtszO8qENlyvyVnUGAyJg2tg4t54MZx41nmemDLJUyacCe6HSJwWY1Mpe4WQL7R38GfEGo+K1scurfJCtNsHv33b7ty0vDx9XjU/7l5fLTeXy//FqUl5drjX5/i8=);lineShape=1;fontSize=7;" parent="1" vertex="1">
                    <mxGeometry x="258.04236759252575" y="21.120521865559567" width="12.419046877327977" height="0.5128517698999531" as="geometry"/>
                </mxCell>
                <mxCell id="87" value="" style="shape=stencil(lVjLbhsxDPwaXwmJpF7nNP2PAHEao2kcOEkff18KC20s2jtBbvaaY2nI4Yjandy8Pt697HccXt9Ox5/7P4f7t8edfNsxH54f96fDm33aye1Obh6Op/2P0/H9+X75/nLXI/unX8ff/R/+LrhEKXYQh3/Lg0BlefB9CX86PJ+FR6WUpvhCRbfjWSmEKT4KtboNkEA6bygWamAFKZRlAjBTbtsATRRnCp1D2gYkJp0BwpQEABpxnQGZKm8DciLlCaCBIiBdArU5rcqQQ0lUZw4fabgKqGH83wooJKBw1ZSkM6BRLNuAZhTnLCVjBbTXlHSudBJiBGhUZy1ZZRSQjiF4uWYlQSQKpTwD2ijNdYBtuc0NlEiANmohnQFWmooKEUjmQtRMCXDI6wYGoOHKWU40e0ABpLN4fRugoRXYc/gMEEmiB2SQpRx8U3fSyAWa76BWB6stgJNGFwvgYADnZC3jtJpaXZYSlEa+aGoDMDKmOJK4ApQKLlxRD0jAjU0alT0A2beJrwbPIWQo79Q8ICMOmULzdUC2YQC+qLQAY+oruLTWYYabHLIHNLSltUxn8k4IIFSqByA37pV2J/uHe26K6aKpK1pinUXOAIJI2AbYpwm5QG85ByhUgZh6U7u8ZjjPdNu4AKCjvRuTK0SCPvNlQFFqs5iqzTOgcDV6uRYzJpClutrQCohQfdW8d265XIjBiNXi6PkVEMbBen2F7M012RNEmik6gA79Xk+rCWHm0AdHIO/CFGZp2MRUkTTKxZhYRt62Oq7NDaQKT/aUfFPrqq7rw3T1K9ioG8AKGr2TSYTzj4hfgTNMq/2c5zpwhGeWXXlkVqtdOTIcEy8AEU6J0Z/TCqUXKLkyUwSEwyjpmtExiW+EuxGXoc9fWCoTA6phtO2aGsrAKQJld9ujCDIT/dUtjK7eCK/+cstAzOylGeBgIeMsOgsHe9dh+2fh6Jrqzw0THbpzfu0e/2m4ffh4ZfBweHpa3jic/+5fMdij5fWE3P4H);lineShape=1;fontSize=7;" parent="1" vertex="1">
                    <mxGeometry x="268.58594902702043" y="19.508469512838815" width="3.362311248769174" height="4.162510429258873" as="geometry"/>
                </mxCell>
                <mxCell id="88" value="" style="shape=stencil(rVfZbhsxDPwavxISqfM5Tf8jQJzaqGsHjtPj70t3oc2K2p2iQN82zgxFDU/t5OHt8PS637F7u10vX/c/js+3w04+7ZiP58P+erzp104ed/Lwcrnuv1wv7+fn6e/Xpzvy/vXt8v1u4efES4VSuLPY/Zp+8STxzw+fJ/zpeF7gc6Rg8IFS2iYUJuGOwImSA4RM7DqCBAplm1CFXOkIQUiASzVT7AmRKQKCd45c71PylBgcUdodZ0Ilj3wSCr1MqnQWIFMk7ztC8U249cgJRekJsemwSkiuZcJMqOTqNiGovdoRKhOHbQKrSoagt8rghKbhjK9UgKpC3F95Ecl1j4izPaCizCCpFp9B+ThKg30BMXDkjf1CFfg/5KniUTmr/T7rtDYKtB+DxQvAa0r2SVoTVY/0d9niUXfR0meLRzktLZpL+wAfmhpL/0FGa3eMgz5A/0hl0BMldKRq7lta39jA5yEfUD7HId8qBdCFwnBfzX+ofxzwFRQ8Dx1F8aAF+ZX6KsB/R2WwH0F+OjvMFO+A/1qPYvWPIH8UP+RPhf1BssUHEF835H9uFbShZx7qMf9HPOdBIA8TVEe7md06lDzoQFEFNGMvtTPX56SzPV1XmAxiVpxtErm0M9cJxY6xHIjRcqAO9C7p2oZkraGN0ZnAbV1YJ/jWduaVSIXGW1owS5fugeAE3U4MQSJsvTnZ3qLJgmarbljS38FHqJJqYggMm53iua9+D4vzji8GH7H9aO2jfUvxtZ8ejjIIQZpD+oEXZF+zqBi8RwEIoz+ouaR5w13gQc6l1HrzAo/8zzZergVkC1+s/+hZoEUo1j6q+399a/0drx8fD7uX4+k0vQuX/7cPQf1pekTK428=);lineShape=1;fontSize=7;" parent="1" vertex="1">
                    <mxGeometry x="309.57497717431846" y="17.041062330459567" width="1.9091854303957578" height="3.3018819825626564" as="geometry"/>
                </mxCell>
                <mxCell id="89" value="" style="shape=stencil(lVfZctswDPwavWJIgOdzmv5HZuLUnrp2xnGvvy9UDWURkrf1mywvKAC7ODjI08f+5X03sPu4Xs5fdz8Pr9f9IJ8G5sNpv7scrvo0yPMgT2/ny+7L5fz99Dr9fn8ZkePTt/OP8YRfk12t5Otoxe739Iap5r8vPk/44+G0xAuVHp/aAdt4R+I6fKXg7uNLpBw7vBeKERg4cqE3qORABFnPy33EkUq6b5AS5dIZiFAALsVKUTqD4CkFYODtF0KlAmIIgXyfpZhhDJLa3zNtkQLgTZS3PoaswgAxcKDUfyFXSiBLSpMxGLkHLvlIvidOxVUEGGjWfW8QKAPxOZvVWqiCEFR6zuKDh3gTAGZNOYgWLxBfTLyJKsD7VooLfAIM8Mp/xYN8MuXwyPliNTf6DzSnvcit8gPwgVxd5R/ireAKCfBfz+eVfoBAhVJf9hU3R1n5UykDfplisHjU3H1rOnMrdbPE7xgw2w9gQZuSVzxq7o54FYDHBSaWgAgIcxuEOSAI9cecnykyjDdYvCswn6uCRAT7Jt9lgYH8cPN2iYcFZhtiggUjK35zi+g/CyZTQnOPnH8EX9oEmvHcWuR2Ptl2oKKCAwF75ccYBGLEgI76vsZyaUnYNsgUzFxVlaBRr0kyo14oA5d0OZFeRTG1I7YN5q42ryulddbt/SZRNBuUNiKgi9HjvlOLh0Rn1+p8XuqEKqi0nG2WvL5BeyZbpnW9QMOgqPT7oDPsLdW3hWyOuWVtG5+sknRdAELSUjGbvq47YDiNpZUMHglVW6cPFg84Vnxii0fxVsuYdmNA2DhLrT8R+VMtwbpOoXhVwr3/Ht6EFrP0ZgAJrm15u+GRpMfZ23dHhtviOHuDwaPt7OGr4j/x+nC7l74djsfpWrv8395j9dV0B5bnPw==);lineShape=1;fontSize=7;" parent="1" vertex="1">
                    <mxGeometry x="310.90808969729704" y="27.477695665146143" width="3.163608456180449" height="3.8732763596400615" as="geometry"/>
                </mxCell>
                <mxCell id="90" value="" style="shape=stencil(nVfZctswDPwavWJA8H5O0//ITJzaU9fOOO7194WqYSOC8rrtmyxhzQWwODj5h7f90+tuEn67Xs6fd98Pz9f95D9MIofTfnc5XPVp8o+Tf3g5X3afLuevp+fl9+vTbDk/fTl/m//hx4JzjqTMKOGfyxsh8b9ffFzsj4dTb8+xs3eeAgMAUzEHRHIYkFMH8J4EA1LuAEHIJwxwHSA6SgE67XtKiSlWAFDGoQdU4gwAqQWxAXIiX24DhMnXDlCEIjhBUiPwB5DbX2wCvFDto1Q1bnIbEDLlXhrVUwGUkqZpAAQAUMauz0NJFCMA1CbmFYDdbUBVIRhAbHLcBoQm5hWggAKqaUhcgvKuhSRaQAFO10rRUNLMAKcdM7FBlFZTt47IBlApIU7FxlXFFEHJaZhqf4KmRtAJwVJSQEZxFRtXBaC4qovFWQCKkoY9hcEHQEmlU5ONEiyIQDXaPKAuoIAsNtOokyklMx9mr4C+54oc9J3RCWWQa2plvp04tnmYSw4VtR980KJG8o6Uhj7DSHwak8HphCjVoZNlChhQh8R53AWKoVTJo8akE2oQn6A85FbBK3kzqul/BaQwjKBKAWgpCpX+hFVv2x5a2iRMYyqt82yPRWdTra0qAU7iyfWDV/UY0XoSLSXNnEPLAw8TQk8AqdaC7KOUM8yDb0FfbTMBbAKOYp82XZcy4DMscHf2MbXvO8adhU9HTV87dzZKtsvYnZWV7ZZxZycexi3eudn2CgcFx20Sv5s7tKu2VDZzburYljOFYMzRnurtCFRngKvBDkBcvbpLWe7IfJjHmEyxzQS7qg3XckeBnG8hRjU4T/rZTX8vg/+42d2x14f3a+TL4XhcbqHr7/baqa+WK6t//AU=);lineShape=1;fontSize=7;" parent="1" vertex="1">
                    <mxGeometry x="310.8878954843117" y="29.768381471865837" width="1.1497415677566607" height="2.8844399537288328" as="geometry"/>
                </mxCell>
                <mxCell id="91" value="" style="shape=stencil(7Vnbbls5DPwavxKk7nzudv8jQNONsdmkSNNt+/el1tDJEeUzRh9b7JvjcKwbZziUTvHd54e7T/enwJ9fX57/vv96/vD6cIp/nEI4Pz3cv5xf7dMpvj/Fdx+fX+7/enn+8vTh8venux7ZP/3z/G//hW8XnCil1lGBv1++CRTLf1/8eYl/PD/t4xu1OV4CSQWASjHMA0SSBgCZNE6AKBQUABKxToAkJAgQiOsEyEItHgOUdF5zCZT5OL5SS1N8FSpgQoV4XnFtVMHv57G8Ed/C2LOr8YkKz/GZGBxyorTEZzD/5Pez2YrycXykkn18Ciheko8vIIXCst5CTVC82/8eD/ZfKOkyH7CfTLrER7CfTHndTzB/plCW80oonpd4/Pvs9tMyBJwvL/kQqcH1er40CvC8inh+oXyz/J/P1/gbAF8q8cz3HOD8hcf2bQpkKQ4OQJaMjhnLbqE6jxAaZUQBy6GZY52lIKdNVKIbQUgBIDKV+ZSNpxGxOA+R3QCVEpItHiq47VKkinQoj8qyqwQZTCnp+Pd20jYmAOToqV8Ylr9cR+3aAAq5X8TnUrVyAkYoxsUZYGwWkHyl+lzSjYDX6cC+5quNiQDZE9oAqKAZ39ucrWoMBeltBU+chNmqgAR0RXSaZCYBAdoiMlZkgSipjETYTnqrc9cBkcKc3pZdCrZVs9dhkxnkjLR4Z2QUReltgCAewHiE7DgdhvBcB1S/BgMI8l51WI+dLjWQGmq1IywANEJbdElGwb4O0KHVuzVEdHBKdQEgxhlAF21FUqmLRX0zZYdTUg8oGJDctmbo421blT0ApkbzUmmAilOjlAWAKFq98TFAQmsoXjUMwBgQkt9WuOhrFEVe3gCSPSACbTVAWhh3QwQ8H0yMMaejSz7BQtZ8jbtN0bJSFK1Bvbb2NaDU0GHYdgDk6Tvjgj8HZCqFFxttiIZM308jOufm5Eg3Skodc95qUIJ11GqQ9zMGQCMEn011ay+vF14dS9x1DwGM0Jup+SRu+Bmr/O6GwVK+gGyqZWziBlDYgFo/4s5hd5ZHpswpTT8acBC27WGxTKjJNaOqSxddwSLMuqZ5hGo1AGSf2ZcyH4Q5R3gvoUPft2QSOCUz+HUewTqzjG4yZJjtHSFQax+rl6ZYYE2J2wR211URNa9tqbyVFKzBOO+alFCGPTjq/Xx3yaNHOOounV/vi8b9a5uzNSUo4CLD5O29LpjScs1oZhrZ9erLqLl1dMWVfUGx3EZu5je4Qlvi/79C28f/2ldoQjxrhBU55BSsYXH5X6HXTj5/Kq6xxfuKruxAs9po93dX8gLyWdgPkHik1JECuZaqX2BhjQuLDUYuQZK/MehjIn+XfFLjVliyv5eUwdKj+MguXnC8E0WGLaFsEvUWH9H8y6DUWzycz3IPiz2UxTv/wUOVrsc3XycZv0wtV0IM/ZDFu/PFnBH1JBDY2fW3O+cyqaEE/dm3vpvx9uHtYfHj+fHx8i65/79/iLSvLo+Y8f0P);lineShape=1;fontSize=7;" parent="1" vertex="1">
                    <mxGeometry x="309.674595041079" y="35.23932070046601" width="2.9843236551808716" height="2.9820827403945462" as="geometry"/>
                </mxCell>
                <mxCell id="92" value="" style="shape=stencil(lVvbshw1DPya8+qy5Pszl/9IFYGcIiRUCLe/R+aUvevWTi+8HYI0M7alVqvlfUnf/Pbh3a/vXzT+9vXL55/f//n6w9cPL+nbF9XXTx/ef3n9an+9pO9e0jc/fv7y/qcvn3//9MPbf//6blrOv375/Md8wl9vfimH1KeXxr/f/kWD6L//8P2b/cfXT/f2EsZAe7m21xF6A/vciX0NJR72KeRG7HNop30Okoi9hqFgP5h9DCMf9mU94KG9jBDP/WwhVmLfQjr3s68DeWxfQj2fP0Jjz88hnvsjQg9YNJR6OmiozGE/bztYTJEttYgop30Nkq/t+zqgbd/pEfeg54nZGSYSQi1UsNfQyBHsA932JRRiX0MF+77eeGEvZ0RYznXy/BKanPYlRPL8EvTcz2Q7Nq7tc6iQYRIysU8uw3Io5LxSULBvoTBICfWMnxKDUns597/o2rHHAR3GmWGl8BTG9Zad01f253kVS2EGQUHO76kbg6/254yfmimkGMCe+1kNg0m+5JDP+Kk9dPL9lh3n/jSh+VsR4ZpFSGT5OM4K08o68Qv8Sed6W6MlTGJoJ0C0TgFCXMT1uHLusUNaCLsd7IjJkmVn+HZIFHMNYgHVe17b/NihIwr1uuLwqvB1+KQWGqkblgcFHAzpC3FIWCpHpMDlkW7IYhePHXYgbAelqTxjCT7JPpJg74RyeEOmwW38TDs6dIa+dW3idigcfsc6pu1Qaf7kzeDuHCo5uFxChjfYRpNFZ+NAgg6FxJJVAGCZ5sBStBjoVXRgoFpqiLCtO0MeO3QM7+lAdslQXSI6RLLoaqiR3KLZG+r6gDuHRJDvBux3J90YFEuogg6RvKFlJGsWrQxmWg0dYskIP2N3IyicdFoU/TF9FOQXhhqD8VNHsQ2XKgkNQ9J4bmsfIZNtNSTt5xsMKiNZtD1PHXpXVhNjKOeie6FF0fakQUGxlCK7NDapvqtxjazBjqmAQ1wb/dhhB8JdnVZy0sP1jhZdiSSQxSY2dzt+rxwyvEH5Glx7VwfNOHOAglLbQtvHDnWBynYoNJbMQYEfKi3s5pCBgEZKQG+gshlxX0l75TDAodKye6s32yHTHsMcIIGsaWAk1xxg0UV4AjWk0ZmDwPykMzRmn8QWbbt0pqgVYkbsx+b92yHRTm+4gmKtIT1p+wDobQdF70l2zjdMfsOCL61eeTtkygQMlwBbk1JFZTjemuKqSVfYqucbjDayomjgDhqYEdNE3mDgnkBkK7SltJIF+WBdnbKCYkUR3qCLcl2VXQBj3dzgqrCjDBNpeBv0xvMN1oIwkmjkpJxQaU0OK4rVaXnCSaIRLOgUzYEBmXXm2WlhVBtSbGlkE9PHNHSgXmu9I6txxXENyfTgSkH0tnaWUumEgoA5sF0yJE1OkmR9nCEp9HEi62QeO9SVLtuB53TOS5W+ybCd90wJmDTV6HJ0DT7tmFJzVIZqqskRE4MQ9vzkRDR6AtbnYmVYQH7ZqkNhCI013rsJvrNnnX12oM01xuy/hxG9OXUAkZeWqWlfwJ5pyOpkAF2s7HK9ENBL1bzcT4A6vv8Fv0f4/hcUJYVqsBaOCL1LXrqyh3hWqtlOkVHAnqGiOoqqVD7zon+ivbw6zsz1PLMHTpF4/BRU5xIFRLMHdppWWbiyh67iyfMzNtlpMcMr+4T7yQj/zC/cz8j2My+4vDtf/j1Qh3V94JV9xufT+MxLyfmP8V/w+5/kV8F+X/h6/6e9ceiIY2Km7SaHh4lSM+sCYGyd6Vg59QVnt/rF8j27oWalUsJslFz9ZTO1gkO1TuMhN6eerKnHlSAaHT9hMxp1FCuuL3zs4AiQCM2A4iYQsmPkSkDFFOBz2epEYOOVrIMwMg2TI6O6rKrWgqM44WJ8bW7RheLcVHvgDVySaopERbi2bm0TzAeEy8ytoSow7ziQk57DrjN3rJNjydAVi5OhC8vmXnDsMuGFddQufW5TzKueHeqH8qHIUGw5nmT0lDedKsBSekohUJKVHtwoOMieKMsc3M2GVJ9JUjD6Tp1OIEZ3CpPQujwG9kGGtFQwGjicyoUOCYebWxrW0kW7jtraTYZ8EiMOCGZHy7ZpYDtqPTMNpoE6guEz1WidPDPxmR1Ed5Jr5zpzR4Zn+PzkDXivQGlPbQ7AwSY+s6PuWBQnPj+Jb6fGM9VrDuDgqoDS8e5Ugd1E4YkwDTjTKu3UpqgL1x06bcXnRMHdXqCxlBEFDNArn+wgmdk62BW4AtnolZ90xBy1CkALxFjy53YYtEDY8xIMLiPtkOY8DcaKSufBXfFe10h0l2bdBc6XKYezyg4wY2fPurbmujyLrs5EXXXD10b7kjoQBCYsMAW14tWZCW3sdpG7nmYObJequFskg9/Hc0XuVjKuFFQoQXcl40pCVbcIet8h4uBlcLHciiAMj8yB3bKzMusvSFAJVbG0z6Mmb5ijInd9gQ3mZ5Oo6MDqbkruzkalc5Q5+XFXYajO05Guj0KF2incwKIzhY3ZOMMn8fsO6ib5QyiSGf0HKmDQx4Dp1mDcgStTv8V1950XasmuovB7J9YZ4vW2TPNB/H0HpYqqRLcGoZJVx4Rrg3Jp11oanDOJpWLvamjOsicjDWiJcp+E5aoJv/+H1zsM+9k1bUEeY+SNYWRct0u2faa31CLeRDL6yQqJJ/WDljanyJRG48F1oCXT8414o63wX1o4imRtDA1ojDcrEXQEgfuZM5XQFCc61hqykXRC5my9J/3lCv6MwLphFs8ZrwknLqlmJFOW0ezyhLvCOyVJeo06O82Doe4GwDvZhuW7u3YtjT7fTRyFVzLXyU8M5gAKxXgqjAzTFXvaQQfX9n5sdOiMTwryuko1+bl/ODOld7QHzsUzn1m4y5ZcY1d3X/TJDKLgjQyhAK1OKIy0f9eBt1Yi53/uhxmcJPuftj21hxllpPtv9u57KAAVRMTIAa7gzCjSVii5y1WRzijNHmaUkf4UztsLbcL99whtqf16hc+A3H4KFTb8efG7mD4e+MDif/+U8qm9/XH73eaPrx8/vv3s8/7/4+887Z/efiOavvsH);lineShape=1;fontSize=7;" parent="1" vertex="1">
                    <mxGeometry x="308.01064833364313" y="32.928569009969465" width="6.70587072254742" height="8.167123134579075" as="geometry"/>
                </mxCell>
                <mxCell id="93" value="issi Null ke badle&amp;nbsp;&lt;br&gt;put a 5 over there" style="text;html=1;align=center;verticalAlign=middle;resizable=0;points=[];autosize=1;strokeColor=none;fillColor=none;fontSize=7;" parent="1" vertex="1">
                    <mxGeometry x="300" y="-25" width="80" height="30" as="geometry"/>
                </mxCell>
                <mxCell id="94" value="also u need to&amp;nbsp;&lt;br&gt;keep a track of parent=7&lt;br&gt;and also left Null he ya right Null&lt;br&gt;ye to count variable se hoga" style="text;html=1;align=center;verticalAlign=middle;resizable=0;points=[];autosize=1;strokeColor=none;fillColor=none;fontSize=7;" parent="1" vertex="1">
                    <mxGeometry x="312.66" y="6.661338147750939e-16" width="120" height="50" as="geometry"/>
                </mxCell>
                <mxCell id="95" value="" style="shape=stencil(lVjJctswDP0aXzEEV/Ccpv+RmTi1p2mccdzt7wvVQ0cE5Sf7Jst4IpaHjZvw8LF7et9uvPs4HQ/ft7/3z6fdJnzZeL9/222P+5M+bcLjJjy8HI7bb8fDz7fn8+/3p0lyevpx+DV94c8Z5yu5MKG8+3t+4yjn/y++nuVf929zeaGUO/lIqUJ533+/UvRAvlCVTp4DuQgB4npAoeQgIPcneN9sugZIBqCfCBjAHSB4KgwBsfQAfYONjr1XIzerrgJ6L8VEERsdag8QEmx06G1ITAWrFHompbhmdEg9IFMtdwGUfOkeQPbkEFsrSU+NHKkAL4VAsXdrvkRmGTCQrzhyIHAxUog9ANM7efK9SiVSBWzNjsScUIhBDciVah/pUikAtxaxAGFKACCpUe0CCJQBlyo3jS+A1KxaBiSqBiAwDlX/7lWqjgKghgJq79bqW+yvAkxpTeRAHNgpdfoqUCvWqZKPFpCQm4ptJwpACVFDax8zgACrRTUebKgIEO0JMz8s02/g63QEqBtFyTHohNikKSmDm1D9LkyuWEAEtU+rhAwqecBXVckNRjtktFY63wO0QyCVhKJYQAFeEt/K+wyQwQlSWpu9EaAZ5t2gEqJrWlAJGT0pMGQQcutENbYAFLiJOUPgEDU0R8cToJciSbIAWCyXyIcSSDJx79a1HNWGEMccRRmkPWoACKiWJQz8rpCumqNxKGWoWGqOjiegcnw/gO0woARmVPp0+jfc8JQBQHt7MdzQNgfioPOObdWCp4fQ8mXWqlGkk7SZbTYMCJgepgmoZ5+yC0U6hpYvs4EGRTqk5pPZyBTQ2pRbvlwAK71dGplnY18BgWO2A43GnhFb7QG5wDITyZtZOsJ9gO1atjJ7D/Irwz3bmK1sD6M8Xk/YluGV/YdtY1hZsLjtnDducNzy9sYVke1iv7KDXibyG5dcbtG5cYtmu4utrOlsLxpW7gHYlpWVi4axp8GLDGdXenxPMkzm+BrGtbM/xbGthpuuOXe5XFFORtwDU7Mtn1pIABGqvShw0O+stBrkka0L6kD5YX7C+igNi5VH5vqh9mNvjhcpOFhebMvGXLj7xm9VXh8+rxdf9q+v59vJ+f/2OlJfna8yw+M/);lineShape=1;fontSize=7;" parent="1" vertex="1">
                    <mxGeometry x="294.58081372034803" y="51.31508236983689" width="0.37678562926542497" height="8.207216821118834" as="geometry"/>
                </mxCell>
                <mxCell id="96" value="" style="shape=stencil(lZfbchshDIafxrcaQIDgOk3fIzNxGk/TOOM4Pbx9tfVoHbS7f5q7PehDIMQvseOb18e7l/0uhdfz6fh9/+twf37c8ZddSofnx/3pcNanHd/u+ObheNp/Ox3fnu8v7y93k+X09OP4cxrh94VL1HmCUvhz+RAolX8fvl7Mnw7P78xjpFQH+0xdgH2jKoP9NELfBhJT7iNQKWYANOp5AFKkBpbAmXIZgUbcANCpjh64UI3bQM4WwzlIiRgBGiUHNGphGyiJahqAkqlVAFTKI1AjxbQN1GC/Z0AogClVthkbIIkETEnHkzGVpFHmbUCiLdGAxlTBxkmlMCZ3050G2dp00aOHHqmDbG2aS2N69wxzqVcSBxQqYB+6LDwUYrAPvVEKCwCEVYHWPFCRh055PA+6qoAW3amxBwRMKYZguTYTcxy2XDgdm+KAVr041Ap0DMTxjE5xALmh45XoAXRGdYnipO8ahy0iyMIFmtNCBhQoQF01FXrwAJySpnP3cUXaNwGLrS5Av6fsXKRfQx40O6MHUEnR38Vt9exzax8Se4DRGoR69QAqixrEugAyPnNpoRsdn2pJPkoFA9150DAgKVOgeaDjNbgKoWEQtNPdlO5dtn6gfbIABOnMZ4GmlT/5NTCIkqwJPlIy4ZWiFVGlXnRMrZq2rQPZFy0tlBVkqzYPMnqQbEVmvT0RiuMRrSozqJ9haxVmgG2I9RarW6swd0zVzuA6UPwaSsBAJB4B7QMLmBJX74EFqjdHy/4ZCLBmpWrSO7e6mSoCArUxW2M38Vyv1NVkawayhWH9APl90yqJOgEKoxKz5e6qefB9NNuHDXMnF2yiuWHukjRZtDbMXQ+ToBYtzKN1TVuTcTsF4x6sHl3veSjVgr+2BdilRt+HBChZ0Qa7mqPDnnxkcFeUrDD+7+ifugF/aK4P18v2w+Hp6XJXf//fX8710+Viz7d/AQ==);lineShape=1;fontSize=7;" parent="1" vertex="1">
                    <mxGeometry x="292.84435490351717" y="57.85892272833064" width="2.756591391404107" height="2.635816596032251" as="geometry"/>
                </mxCell>
                <mxCell id="97" value="" style="shape=stencil(lVfLctswDPwaXTEk+MQ5Tf8jM3FqT10747ht8veFqlIWIWs7uUnUrki8FuAQHt72T6+7gd3b9XL+vvt9eL7uh/BlYD6c9rvL4apPQ3gcwsPL+bL7djn/PD1P769PI3J8+nH+Nf7hfeKJUEkji93HtBKI3d+FrxP+eDgt8FUouQ7vM6W8TSiVWDoCV0oVEHz7PJ8okweEHCj0O8REXLYJKVKOHUFXkmwTYqbSH0n3TLxNCEIcOoJaJQkQ9DP3BGlW3SVwppA7QtWVsE3w3sZBKlWwg5D0TtJUiSAMtQVpga8gMTJxb7F3jhxIvUicVhuAA3E77gKfPPAQuZWDBHjU2RgrnsH/Z+tmfKEI8f++zvhMGUWYYu9QSS2EG/6RYPHoPJFKsXgP8Fo02eIdSIhKWSyeAd47CskSCgqwKkuxHg3AQ55XIS7kQYqOhGQJggi+hXSRRBkbHVdlGZBgU3UWX2BZ1lXVCKiy2ERkiUdKRy5YPDTY9hvFexAz9U+yDo3g/1qVpsoKZWCva+1xkUNIhVRV2OI98M+n8cnKXNWQAILuUEyrKVSQTkgr85mgTgadQ/t16mOQmRzKoWgrOWmaABsSt9Yyt/yAs9pR6dM06BAAdsil9Yp5bMkkwGidc3yf2BoZDwi1UO3VyDeBvY/XPLZ4BjOITmqhTwwHwyyOUjT4AM4jvinbDY/agYT2uxsetXuJNsauScd9fLYDjoOTrNZ5sv5B48EozMng0XgwjksmIZp0b+GNknKTpo1OsBoomDIy4JOj/v/x+nC7V7wcjsfpWrL8bu8hujTdYcLjHw==);lineShape=1;fontSize=7;" parent="1" vertex="1">
                    <mxGeometry x="295.77390105963997" y="58.25772154802928" width="0.9221891336460101" height="2.294257768563876" as="geometry"/>
                </mxCell>
                <mxCell id="99" value="" style="group" parent="1" vertex="1" connectable="0">
                    <mxGeometry x="258.04" y="60.55" width="70" height="55" as="geometry"/>
                </mxCell>
                <mxCell id="100" value="" style="group" parent="99" vertex="1" connectable="0">
                    <mxGeometry x="10" width="50" height="55" as="geometry"/>
                </mxCell>
                <mxCell id="101" value="4&lt;br style=&quot;font-size: 7px;&quot;&gt;" style="text;html=1;align=center;verticalAlign=middle;resizable=0;points=[];autosize=1;strokeColor=none;fillColor=none;fontSize=7;" parent="100" vertex="1">
                    <mxGeometry x="10" width="30" height="20" as="geometry"/>
                </mxCell>
                <mxCell id="102" value="3" style="text;html=1;align=center;verticalAlign=middle;resizable=0;points=[];autosize=1;strokeColor=none;fillColor=none;fontSize=7;" parent="100" vertex="1">
                    <mxGeometry x="20" y="35" width="30" height="20" as="geometry"/>
                </mxCell>
                <mxCell id="103" value="" style="group" parent="100" vertex="1" connectable="0">
                    <mxGeometry y="13.918021306431228" width="42.19624544701863" height="27.816055047083545" as="geometry"/>
                </mxCell>
                <mxCell id="104" value="2" style="text;html=1;align=center;verticalAlign=middle;resizable=0;points=[];autosize=1;strokeColor=none;fillColor=none;fontSize=7;" parent="103" vertex="1">
                    <mxGeometry y="1.0819786935687716" width="30" height="20" as="geometry"/>
                </mxCell>
                <mxCell id="105" value="" style="shape=stencil(lVhJchsxDHyNriiAC0ieHecfrrIcq+JYLtnZfh9MVByL4KgT37R0c7CjObt48/p497LfBX59Ox2/7n8e7t8ed/HTLoTD8+P+dHizT7t4u4s3D8fT/svp+P35/vz95W5BLp++HX8sJ/w681qjFhZW4N/nX5ia/v3h8xn/dHi+xBcqOuATxQzwiaQO+EpVAF6IZcBLoJCuE6pSzSNBSQMgCOlICEIFPKHk/vdKKJSAz9oojjGKkRIwSQNVHgmNEl8nZKXcxiwkahUQmOrog/3CgJDM6TgSEmkBBKHoCJUyiFIsPnEqPQzbhEw8+qCph2GbYGEda1sVRilOxWepFPCE0LxJRSiD9glWrWUkrA2yTbCojyYV7R27TQiUxoYrjQpInDU8jybVAPtBSs/rSsiUIyBY4sbyrhX2tLV8Hn1oTAVMDeE+hFZC6IHeHgIUx/6xOVWAC0pl9KApBZBn8bVtcxaNPaua5PENRYjCaI8w9yBvEqb+Xx4A6o4py+QAxIfp/ALKdCo6w2dovyshw6MEGH5KAEN7gvO3wmHElNTjFRSQ1W/z+AzsEZLk8QlMIun/Xp6PerKX46X9aHBN8ay9oq7gpU3xh+f7+NsSBQ1j50ePR9tGqE34AvE61U+DDRzDhAf5WlXW/zewTgFCe4A3DCqwgWU6P0M8zwkDAeXefhd4gf7KXHBgopu/xeMV2v8xfCZx9mdKoCBs0bsGiHDg1glvJQ78FdMqjmAhRh0f/YiotsjRE7SftxJSN3KbUP3SMCUhoCaWrTSaZFolIHET/RgyNRQRIfcpshIiLOtF2jv5ZK2KfDCl7lRpxapUvEmmSiNInF0e8jgr1EoJCWXtl4cLZY3Eflxn26rdC9x+dtuI4xNy7AN2m9D6BWi9sDTodLZ+c/fMRAEpNPESMOKNpqUHcSUEUpA4U+rBXRwVisbKfonbmkAixHR0GPvBpDOSgXUKq+D7hw2V7KQ4vH7YkGsuqlSByzZEeUwbw5tvq/71gAkxMJMM77LMcMIsKsjbw/h8p9PWPbeNb35G4i2+qNbi8SiezeeL+9i/hldvP7rALqrexxPN00V0eHxCO4Qn4W5CBlT0u2x6x6NJ9OH3V//E24f3l2UPh6en87u2y//9yzX76fxiLt7+AQ==);lineShape=1;fontSize=7;" parent="103" vertex="1">
                    <mxGeometry x="19.564740664598645" y="0.16814491020784317" width="4.077038719613128" height="5.973885570734757" as="geometry"/>
                </mxCell>
                <mxCell id="106" value="" style="shape=stencil(lVnJUhsxEP0aX7taa0tnQv6DKkxwhWDKkO3v0xOX5FHL84CbPdab3l5v8i7cvD7evex3nl/fTsfv+9+H+7fHXfiy8/7w/Lg/Hd700y7c7sLNw/G0/3Y6/ny+P39/uVtOLp9+HH8tb/hzxjFFWUCe/7YHXP8/+Ho+/nR4Xh13lPNw3FECxyN5Ho5HinH7eCGfhuOFsgPKOBKjjaOaASBTGAXoEw8Aal7xA0CfBA8AQtUAMlXeBgT1yAgIngQAoiMejQ6FIgIIxTIGIVAp24AUrJdioQIkJFVgVElf4UHgspo4SkjqpQAAmVwdAZUKklBs4FQmp22AcHtfBwSqgKviyccRkCiCXBB1q5GQoQ2i2WNsKMSAfJIsNXIlJxBQRmqoGxCXJJOMKkmvCNcBQtlI8DDSoik/FiR1g0NeqpOERB4YXZjyyCW1KgIJxU0qCSXApeIpj/RWqxJSKdh8WKwCbi2xObFXSuUvkqAJZAC+ses6QCxbVcmMareaaCQkcsgGzWBT7ZVdgBrV2XxQmciGqnEwAJUJUrRqyo9cUpkJSVCqGUAgB7xUs+23NTZ2XQcIyRgHfYUDKVqrzelaqCIJtdW5DqhwBlgAxQI8yAfHOlSwRUQUahVRLQCNAgsgWYBgq62bKmzUtdoGcfHDFsDUypUfthA5TCJACunPKVsAKgMLYAqEIL5W29qXV2AJMyBgNsWZTSjnqi00C1+xl7IxujS2bAKmFIJ1o3Pt4wBT+xaVcBzMXLkYjW2oMrkVkO96koZ3CseUpKgvXti8Zh8OdZ1yruBQl89mkOm8H0nSyYh36kCaKw2uZZ8ESNuqOkCIkUraQoyE1FrlVp+z3Ii4C4WpbXk4HevPZumojEPNluDa3NHSUSa36oyDNq0yr6PqNzwzsRmBIuxaOiGVkUsFL07L+8aU0+EU7XL6vmTGOG7FbWt2jWOkpfttazoOZpzWSRANitxa/2qcRvO3KhBHG3Rg90AlVcCqlGDgVIFgdoiAt5TcKuNqrckIkGzT0sUpoMUptr68Ws0ckhBsh9BtEZU+BRi2ZoEjk2ps6r0usBHFgW3G5QhVUo3NwK5LOBpFdeU2o2jm1lm3bh7S6NYkcDpOUxFIsS3+W7cnztyeaFMCgChtXe2A2EJ5HcB2eAgVXquF2IpKBwQ49XmxZWa510KAfg3YAR7S2/VK2vuu5iAaT/oi1gFKDVQqp44FN+ope/BljrPdysPlmC0nHLyX6Xewl+OonevxkdMMs4yb3y7HC6DbNBYyXFivHEcbNNsixHDmZHvDxTAZ2bIM11C2YxHDxYJtaWDISG43x6vjgPFsG3F31dbxz1zkv3tcP1z+M3g4PD2d/3JY/27/Y9BH5/8nwu0/);lineShape=1;fontSize=7;" parent="103" vertex="1">
                    <mxGeometry x="27.34329623413376" width="13.43037879425657" height="6.528432542546019" as="geometry"/>
                </mxCell>
                <mxCell id="107" value="" style="shape=stencil(lVfbctpADP0av2pW2vtzmv5HZkIKUwoZQtrm7yPXtfFq4bS8GXPk1eVIRzv4h7ft0+tmEPd2Ph2/b37tns/bwX8ZRHaH7ea0O+vT4B8H//ByPG2+nY7vh+fp9+vTiByffhx/jl/4PdnVSjWNVuI+pjeOsvvz4uuE3+8Oa3yhUhq8UEwAnyjUBh8pI7xQcA2eHRXgUCmUYmsQKQRg4Cm2JwhTktsGOZNIa1CoAoOkOQ2Ngc/EIOjEVNoYQiIHYojeZilGEnBCCJTasqUAg/aJfMuL7EnKbQPNSeLGoDA5BgY8E2ExyJRA0FpXk1YlSwEnMJO0LikbI+BSpthyVdlegUeOXBuBdlMCOVK8s/gIAlC8t3gP/eFo8VwR3nd4lxE+uS4/8PtmVox4wFKeu+Q/v88U+B7/ufMf50cZKvfkX/FdPlF91Z9q8Yg/TLH7fgFNzOQ7/lSP8H+zt8bD+ua2vuwWit8wiF3BakR46RwqgEDaAF2BMwjYzRNqXTDYAD0+wHh7fwQ2cB8vwwHR5xPN3K5gY4PBhrGEUDwkaE84pGPXCM2AD9caRmAD34dPVlY1Xg8arBP6GnGDLaK7kjDkkFbMeKQiiTKkGiatS0VJAlzyYa7oIvRYVcOyB6xWCQYkimJlLwZ4QtKgWxqFOCvzdYNCsU2rri8ZrXTRNoKuLwGcUMRKsXJL0FqarZbp+uIQlVQsW67q4utBWmuYqXbZrD3arPs1Fs4ipb60zenw98usjRe8AKYqPhSDR8yu3aLvoNiPN5UOjwpQ7bDDWjaOEus/mr2jVFSLR/HqLmD9Yex/EZt/7I/hj8OzbtkFLviAZrXr1l0HxfXuq+g/8fpwufe+7Pb76dq8/t/ek/XVdMf2j58=);lineShape=1;fontSize=7;" parent="103" vertex="1">
                    <mxGeometry x="8.538293097297753" y="16.56522440687911" width="4.592531380150672" height="7.765862021405667" as="geometry"/>
                </mxCell>
                <mxCell id="108" value="" style="shape=stencil(lVjbchoxDP0aXjXyXX5O0//ITEhhSkOGkF7+vtpSA5Z3D+Rt2dXBuuvIq/Dwvnl6W688vx8P++/rX9vn42YVvqy8375u1oftUZ9W4XEVHl72h/W3w/7j9fn0++1pkpyefux/Tv/w+4RjimUCef7TXjj378XXk/hu+3ol7im6TtyT5GXxRCV04rm9mBUXKrkTd0wM/t7p6b4HxGbPPKBQjT2gUgEAH4n7E9SE/29mAYFJ+hOCp5oAQMhJB4gMbYjq1NoDhDzwagoUekBKUKXMlHtADhQjABRKvZeK2sDLgBIoG4BmBnBrEZLUAcTDRJVArk89ye3MeUCm1J9QtRRAHKSS72uhaqQBoDryfa3VRCwA4K3RVZUEcaiarQagkQFemhQwNkjz2xJAxAISskHjGi2ggtSYNDaACitOP+dgTxBkQ7Vd6TZARgAyulId3ForBhRrNIqDY+2MbBEB+bU2Da4A8YYR2QIyyj5103ACaq4TYLBBMKAMAJhMqvF4AjY6jQBUQerEMHgJhzqIBSScfWGIQwBTcfYEh1UabWCskvWStIy/Nw7S5uS9kZY26+/NJYHUZCZbBU7F2XqA7Xuu4jwwer6oI7Z67BvpRqNxFoAo2UzvqzcjNwBu1OgnAaX1rQtNPDtuaQgZujEZgfyaGhu5DgSevOOIqMivwfJEBXgUOT+UUMEN3w2zPUGj5Zz/Z0BoVbhEmbxpNAzbgHI26dNV1AZQc0r7Ul9CcuZES8TSNMui2YK4biFvAI4c4rpsm2WOjcEv0W/DRFOGE0IJfuoBSvARsQy61fTZGl3jpktLSurjEHCkvX7uU2Pa5PCilfsTdLFMIPl0lTO0zyXyKFvt4qq7Isru1BrpOc4UQRB8WzzPHoJ9VVeFvjgZDh+2/85UQAqxXUJ1QcPiVpmElbHiqNWxbStMATQ6FY9GHIVVxasRRzyYW61exNGFAduVjeFqwba/4TGjjhiUAVXI9i6F2/a2JP6Zm5qb4vpwuRR62e52pzul6+/2EklfnS6gwuNf);lineShape=1;fontSize=7;" parent="103" vertex="1">
                    <mxGeometry x="15.15067034740025" y="16.73338759431124" width="14.4058144281356" height="8.47192522351325" as="geometry"/>
                </mxCell>
                <mxCell id="109" value="" style="group" parent="99" vertex="1" connectable="0">
                    <mxGeometry y="15" width="70" height="40" as="geometry"/>
                </mxCell>
                <mxCell id="110" value="7" style="text;html=1;align=center;verticalAlign=middle;resizable=0;points=[];autosize=1;strokeColor=none;fillColor=none;fontSize=7;" parent="109" vertex="1">
                    <mxGeometry x="40" width="30" height="20" as="geometry"/>
                </mxCell>
                <mxCell id="111" value="1" style="text;html=1;align=center;verticalAlign=middle;resizable=0;points=[];autosize=1;strokeColor=none;fillColor=none;fontSize=7;" parent="109" vertex="1">
                    <mxGeometry y="20" width="30" height="20" as="geometry"/>
                </mxCell>
                <mxCell id="112" value="" style="shape=stencil(lVjZUhtBDPwav6qkOTXPhPwHVZjgCsGUIdffRxvXLDsauxPeFtPa1dHStGYXb14f7172u8Cvb6fj1/3Pw/3b4y5+2oVweH7cnw5v9rSLt7t483A87b+cjt+f789/v9wtyOXp2/HH8oZfZ7vWqIXFKvDv8y9Mmv/+8PmMfzo8b/GVchzwiSQAfKagA76SVICPVMqAbxSQP0KpDngRqnrdQJV0dEgSZWRQeoCrgeWgAYNAjQcDy2mN1w1qoyijQSIWYJApttGgUirAQEjSYBCFGARdCuWxDDFRBUEX6bRZDZQKIEauFMYYUqAMgs6hl2k1MCfTdYNUSce0ZqYMXEqRwli4nCgCslqILuisxICtlkTnkuWtIAMr01iHkmG/GRF07M+ilJBB6u2yNqi1FHAphM7N1SB1dl00kNbLtBoUSoB81l9prEM1LqEvWD+MMSjDtEqkNMagAQ4BGyrFfSHBjmu+0DZGIsAryVg2m1MRlK1QGbunMcRbhkamNgsYEY/a6H8z6oL+F087O1hgQqkGj6+oxP7YMbyC1hQK1eMbyD9Tc8cIMzEjA0eI5QMgYPacXvBg3DFJmxIE38/Z4ws4dNboNnhE6EvvD9Cf2X+B/riONDw6A+f8KzX4/jbjQcPMBDI8GikXCMqQ0HMDCGyYucEifL9O9UKHn/kzNUyBDV8m/ijIv/Txt+U/9J/nBgb+8AX/MT5N/ET+cJeh/xkvd321zSfu34n/SA4ZfuIP4sNH8aHL9M0BgPgTJz6EPgEuiy3fj9q6bL5y4DmdrxXmX72W00yK+M+9XVeDiAkq/X0bDcHoC9ErLVMpAkI2WaOTDoIG1Z9itimgQ2bpgjGGGuGxbWV2Y70yLJvVLYxfKLUvYJcNmm/MkqDMj6banUReRfNlg0pxHKW2iyRApTSJvxyhWLHFxO82DaqnLP50TRmeTjlTHYM2J9EXCvduX/ezCuej7RnOJVteBByApfkJEBkvpdEfaUYWdPdQa1+jV4MIdxsVX4dFlgDV+C7qN7s+I4Pqx4wkuAHalHOFk1VpXLvgcPcVChfxFn0IhSoYAS37C5f1BubaBVAbc8p9+bqMt5ElDg8vdNTXjOF2afjMDo+63/A1eTzKj87xor1gkcXT+wFHF9mtHo/y2fwwwpReZIr3B+n2RQZlh0c9ttmT3g0yKkCbEwoJ+tEbyn/i7eH9OvTh8PR0vk3d/t9fn9pP56vXePsH);lineShape=1;fontSize=7;" parent="1" vertex="1">
                    <mxGeometry x="308.95880998684424" y="89.44971864391675" width="3.239169359673776" height="5.531662560178238" as="geometry"/>
                </mxCell>
                <mxCell id="113" value="" style="shape=stencil(nVjbUhsxDP2avGrku/xM6X8wQyiZUsIE6OXvKzf1spaTk6Zvm43O2pKloyNvws3r493LduP59e2w/7r9sbt/e9yETxvvd8+P28PuTZ824XYTbh72h+2Xw/79+f74++WuWbanb/vv7Qs/jzjHlFJDef719w1x+PPi89H+afds7P1gX8glbM/j9yNxhIAoI6CSwzvydQD4RLlCAI8uBE+5nAdUG6LIFMACQuJGe6EIPChUx++nDENUiEf7HMi58/aJahztK9V83j5SGb9fMgVwxoHK6K84KiA+nkoY7TMJ8NeTG/dfuXt0+oC7d4t9oAri73t+LfaZHMiHyd9aKIF4Cnm238+oZjwFs0CiADbkSj//lcdJgMeeahkBrif5aUClMsZUKnmUE9muIJq2DJIuEY91L5qHwOmkxzCWsXjoQ/Z9xwtgIbPTdaZlPjpdhAoqTCFnyLGQR5mRO3kuAC1WEKVaexAXQIR8rQDDjg0AoqSAVCzAAR8UUKYVAgYYPlJABufgmE94XQHjtSWKjavHAIkWEEEFKSBPANR1FBDEAgSfHNcJgLakfYevWkEoXeeDUJijhDqn9KivAA6v4EyUIi4IsUXdkgkD4pRLqLspIAcLgAUhfcf/XnL+2qKOU5QcqKBWo94CPM7W2QfElQ0wsYBcKNEpvZGKaSU6AZAMa05PyZcvhHViDSRkFGCzVSsO1cO1AG0Q0aR36erpXAuKpmctPHKuyZW5K4It5UUsr/ou4vsUe8mvOnvEUiAZKZA7254WG8UqdJGeLKcBOmQYweT6yZzWP4HypCmR2FBJZrJVNVwGUXLBqnpVlShbxbbdllxIL9lMWrXVczKd7QICPOD+72IvMJGmpq6yGHESd05cHUGB+wkmoAzHPLZjQys+kBPOyhgdeyIcY6wm0TEPEF602lDHNrT/ZDuhVirilmzHqoTlQraErWMtErfF0q+OzR7EU3r6rsdykJ/KdGNPa3M/iL9m47j/CxcLYoXwhZuLWU3BmxE1H8ODL16mrytvw2Aa0cKQrqSPWh/mAbpqbiwYsme1J6uljASUJWfMU9VS8yVzQ8x4M47tbI19VfvAV4Sy3XfZg4WNZbqAw4nwPxd82F4fPm4TH3ZPT8fLyPX/9vZRXx1vLsPtbw==);lineShape=1;fontSize=7;" parent="1" vertex="1">
                    <mxGeometry x="308.35950556906135" y="92.52194810954381" width="3.3302058793686355" height="3.2753738705202986" as="geometry"/>
                </mxCell>
                <mxCell id="114" value="" style="shape=stencil(lVrZchs3EPwavqJwH8+O8x+ushyxokguWbn+Po0wWC4au63oTSKnd4HBHD0NXsKnH49fvj9cvP3x9vry68Of169vj5fw08X76/Pjw+v1DX9dwudL+PTt5fXhl9eX35+/3v7//qVb9r9+e/mjP+GvG65VU2xHefv37RNnqvv3g59v9k/X5729N81N9t7YcG5fs4lsn4qwdybWyT4Y68/tSzIlk30S9rmZMq8nGhuFPR4XyD7Vc/tUTJ3tk/Fivwn+LGRfhX2sJs3rh4OVfTQ5kX0T+43OhDjZl/HBoX2oxlqy/y+gju2X9VQZP8EZy/ZB2PftNbKPSdh7UzPbt3N7h3zh52fxfJeMm/3TjBPx45B+fs5Ha5zYMB43rx9PiCKBF/84JJjYcBru2+yTsSrgTJjj0yGAxPMDx7O30kGB/YlPvAg4nO+8X3ggiOd7Pl94WAaQKXO+BD8q2Jk91aukE2yUp82+jAp8Yp/n+hm1P5GP835RAVpW8WOpfga5/mYa1c9oiogf502eDzimEeJnGUYejdqjri0lPekjRowmBiRVhIrJy5JU10DM2MKArKICQbwsKau0tOPrHaCqRpC4sMdsvPBSbKMw7wAqUlPg0hKLXBJ6a5xzAe+0YknZMflI1hRxcDkyu+n9WWVDNY4AcKs46WJNm92ammyAJXBBzV5GKxhRmN+Q0+AYx4A8GMcGQIaIcyhby956fpA9CgBKUbxTscDSeNP4pIhzwNd5bpsVPFMD6uylqstMfwM1/mKSaGwAeHpDG739GIDCPpdukG3JffOo7Bsgjup8FktEdloa7esY4PikW5HdJC8pigEjKD6O8J6Dr7WRUsdFoI782gFULKXItRWAKk46LsEHgEqgzrHnTTtrR/U8Lt9LV+xrEkkNkuCXXWfh12DHGLQDKB4GYkJEsp+ccBMGxbIctRdLAiB6BqhwBcDTQRQZrgC4xICoAT4ywCkq4Ma0tQGyrPf3cXoHyArglyVlWck6o7QLQG06LF7CktQ5hPG8HaCoPQQeguFWedKBpxIAvIrWyOwEgKzGgLX0FX1wYVT3XbSqJtfnEMeAoJbkBxHeA3SKcmGqepZx3Nl7impAWt6gpsOeQGVx60dTVEYrAGtoaECgUpll+QaAOnsPb/UGP3yyzzh9cGsCvZOiHN5ZDhAfBqA/8KaRQEqISSzM9ZMW4Y2Jwy4n3YSX4qas/c/gi4v20apsu5g4uFTqPYBscMYVmXHg5mGprVXsAdy8LrEkGVYdRGHH4VSpBIfzBIjGKfIdFq7hNXFdpqaGd6p5IPPUVLXIAkAhFbBIlQVcmmQT0HuvqHEZVHs3QChhr09NNNM0qawCwDNNlsFXEucDTkZpvTgHGqiLpqHF8zCa85A6TqfX2a3g72pqQrRSF8W4q0SBng+zW5MWrJFx1ONA+NXEgQVQ28WMH9QAkUff36kISqPH84joolIVJZ3UUXo3QJXkpJfKwgDV2FGMqXpHFGPhpS4wRQYoztclrMwAdZPURbLlDWoGQo+LbQEoKRFFxX4IkFgviro/OLeoakWS9W0Y3mtkYs/rgpLMhrDoiKgJSjxdzsDLUcAut2dWXpdYVij6fZEIO8s05h113LI+0dV3ccKW20JX90WnshzU/fZArt/N53s/kRP7QLc3bYxOJ+dFtx8OnVGsx4/dbfb6ujMu9k7q0IU1ribNneUUrvo2LHL8l+GAY/vKdTFrod6zCphluOHrSv1P3u52ls23r6pdhjh409Zq9GVP4f0mKS7EVX2W+giqh/dk7xQjr8yiopTa0Clp3tyuD89uAEgtDGOMOVMXKT790FiP7RvPjl6WB1A06vROsv3quD44ST1q5vpjJS9oy22klbQA8xKphJowtmX4sFLX6VpuYXu1nja61d1exRvsaaCz+jKysXhsZX3owi/bK2Vgp/veAaq/t8aE2snZrG+ArtdlAHWVmH/eo4SHLhLzelRBaY0bsJO3ux/+udG79vjj/tumb9enp9tPo/bf82+h8NHtd1Th8z8=);lineShape=1;fontSize=7;" parent="1" vertex="1">
                    <mxGeometry x="307.314623163586" y="97.75197256232195" width="2.4761459945388986" height="3.8050774882129184" as="geometry"/>
                </mxCell>
                <mxCell id="115" value="" style="shape=stencil(lZxZ0t3GDYVXo1dWz8Ozk+zDVZZjVRzbZTvT7oOOQuryoO9H6026P0D2gMY5GJof8je//fDtLx8/pPDb77/+/LeP//r03e8/fMh/+pDSp59++Pjrp9/tXx/ynz/kb77/+dePf/3153/89N3n///y7ZJc//r7z/9cT/j3Z71cjz6WVgr/+fxLOHr53w9/+Sz/46efXuXLEedNPh4xg3w6ehL5/79wL29/Djf5dOQK8uGo9SafjxDfy6d5FJWn8aRxpLt8ORqMJ/Uj3Mdfj0rPr8doN/nG8uUY5Sbfj5ZAPuvzx9EmyKdjxJv8PAbsr21nvY8nmkGAAZl9xfsCxXQ0eEMcRxWFcqQOCu0c8aXQjgBras+bMod+TFgkG7EsapznI/YKdqjuQ7J1m2BG4zSySz4fExapHb3f5ev5y1a+HlHk+1HAjMyKRH6cv+x3Wcdj5zTSnh3zvqDmBzIZxVFEPuH4zSbvXi7no9AOH0HGb8ce3Eo8nc4lX9GthGPKeMxvwHiCWx87FTDfcFrX5bUCuumgJ6AkdKPhtMZLPvOJOcIdBUpDL2H7JeMfR0F7yPf1rDbCQPLtvp41o73ZatzHUy+//Ua+3u2n8vjzke7r38IxYD3LEQQ1bPww36L20BiWqtpb6yeOb+W72n+bCDPjtPYLxQxHQH46eTu/dB6Dbliv5y97hai43RsCqynIkenjRLa3oHG30W5chHyiOd37oRnMzQzHumC9DZLeUM9NuhTy6SjfQauws2FYTOeyuyFVBoKh/MYU0LNM3YfREPqWLxKFflQ6++l0nZeCkULmXDmoAqJlOY3/Upjo3tf5vJv3DLhxX+D9RWEyTxaPPS+f+Y6IC+TPhEfUELvdV2my8RkEC9WfBUEqt40Cee0FqjKHehK3vVsNunGzoS0ZrFZZ1n66/r1CObJToDkYsAo0zHFkUrDnVVXopGCu/e7I5kTfWs23R1Ugr2FgXIoqZNhpQ+Pm3kBho8GxELylAJM2PBZGvhTgTBsgC0V9UmjniP/gpA1ik9uHCHPozpHZTpMT6I42mEKFZe3dmcY4mdyeBwS3D/YIWKWRjlxUgWB3AZTMoSEVG477LCcAq2TwIeTT3MwER2ZooF6DUdTQQM07Y7hjzj3LHBJunDn3IKYRkf6sP8ukA78hnQT7BeOIsprCvJuGrRu5e1sTWSVjAgRZa9Ud16DMwoKP+6RHRmdsliOeb9kv8dwrLHrhfBQImEK7r5KxSnxD1xNnhxbf0HXjjBknmnQ/8zmXQsFg2xQkmjRPhcY3NDzs4SSm7xRkDm1gWmu6pJO550mTHhpRNia6piDsfiEGK0jOoMVj0KSnxkAGYuRmloJE0ZwsnC4sqx0RaKNQMfm3FO4HqBbkGmtZZQ7pPIPvFCQ1Vy9f+E6h3OdghAg9n1nrfaeNchE+rAN0n7SRukLL2ly6p2A+crkZl78hcmKOTGhouQDgnasUCpcnco3pOJ+xcbSly5NeCo3dTNQ5WERBSaJ5HZeXrCGxSkM08d45nqf8HROQWDQHpKGjKTlZgRopVJe5ZXdvfEkKQiu5TG9wsLtyz2B844oLL4ULV/cKLntrCkh0p1IHC8kbDKkPTVOsjBwT3XQ3vpTQlnrVwG/lCGlIWUmiKSR6g6+cRa4ZTMXpxJyv9aO4NxCFMwgU770SxxQD2Zo0VaBy20I0p5ApsXmlbl4UEoWW7aSELwqBSitFufdKUVEsmpTCRXaVNaqbeVAwgOr+DbDTK9v+VQUuQzQtC0/kS6Uq51sKsHGGaHU4BUqRZ1dofHhD3L2BFIIGTXGieRuiFb8PpNBOp/IHlzVXJbpPCnlnGlRwT+r5nt7gaksPk05Ts9IpIOdLQzMnq8hMNWiPogGzcIZokqs0BUpuGkAl5/kauMpVMXUKxO59iTJdJYx3iXJJU5gCAUrsJ2a+unuqPzStoaw6LSX7ywZQqCwVbZWmKhCwr2aE5BSIrDsAipiPao78MC9umodPnFZvDt8i2pEj9ili+OOyxWuPwas2JazLiHD8wRkdHc3mGhM4GmtnivSVYRBhOMpw8riezaE/0eem5asvpfI9a9scGTrFhrPO3ij92TfrmQD5d/IU8uzGQ0d+N9+K50uKEw/n1+/X43l09snnXe0tYgJjZ89E+3fnhbLVu/OIRYPNeaei286fULzp/dUD43f+kOuSbQPEfB6/Tn5qyfBBPkZlmU8K6QyOXxVgRVe3m6NDlFSIVVNgibOjBvTFvYEOpVEJtepwIvmerISNW6TsqNGhrwtAVn+cU6COFaN02bF9rLn7tkKuMSYXapoCJRUW8XVsn1ZpS60jzGFL3rF9dxceoMIuAEGFXYiDCrsgiia9DdNQYRcIRoqvd6EmofI2mEWFXbiMQ9oF5LSsZbusYK0rqeDnQKmXeCbtXs8D7EN1MdFSAFdZXdJ5HVF6Q9vkagq4meoKSctrEL4FTXYuv0QEJrlW4YBlz1Vnct6bwrTWXWbxIck21fM9gHqPeqYfooSe3RsiOuNeN4HgeOhMEGBPaK19anH4S1PnPksdzs6flxxyoDx41Fb7laXmTLuG/AWtdbjmoYV6VMCobg4N8xyrwi4KHfnt6I7+DK4WDI0AMudfx9RiWGbKPV1DoKEe3ReYyZV5ClcxszIBQz3KN03H+XLHMHLV5+4nLk+uiDetqRjqFZp00/LzQj3KpHQtcJeChaRNYbVhLDNdj+LqZaM5TM03GYjhpKemwFZfOVfEBRQNxLCqf2XuL4WCCY8Ygrth9FhDn19bpZetNthDY3JHbtVlyDbmGSNdCuy+17pKA0fmsv7UVk7DSarzLNuQFvaOmZjpAKJxl++cGnuvrpWHXgZpMU/cjzHUffeCmGUKMofe8B7EatWR7qHBq9Q1oWrAit6466EeEf39aueTbmsG6lk1phkPPSVV240MJ7Efo+g+GE5in1hWwrRazB8QRTrRJjYeG2Zp/+oVk79DRXECM3IHVNRuidXBR0MKruE1cx/AVBi1haYY38jGFIWK/n5craGXQkNHZpYjbV8LJ6m9wu9D55sywTWAj3Pv3zFduZy4WpyIrVfN4U5OO5gXEq8x2fgsgNCm3Xny971CO7uRXhQo/bN65+7L+oKT7wIzgfYnjdUz7jq6aa8Nl7XPlwvK6xKaV6Bw1N17W8jKvfvFLSzlu41RVfcGvE5QNWhfjYuUR8jukPJduXU1UVapY6n0y93HFwUi+HloFn42bAzO/tJF5csv7gLfZKTOSVNM5iyJPGTXGbPcMd38dgmgmbgo3pTgGwRUygK73OB8qHFnzW/Oh8K+u1M0+I7dqq444MXbY2Fzt4ui/JWykhbwjpASXbvoQiV6Q9f85grjqaLgbo+NwmX34uhJRhyN2b0hYQIoZu0UG1z3jcmR6cmXI6OiXOd7UTFokcO4MfJ73WgD1oR3YJV7Z4zjupPn5tKm6db20FambrV1bhJTJ9m47zNrxuELaO+PmtLD9tDgoqVfA2wKEV0XneE1zfcK1i75jK2GQf1pDQjmrtv4SxfeG3lBhNIwrA96xB7u7Hv5p28CSF7i8ZsDIv/4TQOVZxR341/fZOD1cd98IDe67Q5HeWFSqxoH83X2mbn0HjXNsz7dQgzBVa4HRubFleo7BuZNYck8DBWJu2bCbIS0/i6t9dBKEt31xzgZJ4t6rNj5UzWOBkZ2iet6vAwpo49e9SxRSMhMk7uWvb5FQzfFkx4bTpGuIodAPVafUlGzYDq0YEkSeejlUlOYrFhZXTfj73tWmGK6i16ZPwbgi2ccGbibmBGvoK/AQGyOb9FnrToF/jJJVYYczgTdO3nJfXFUbfKyno/yUvl7HM/U+ZLXyq6JlVEsu44tvk9g8kLvA7LE7G6EBmzQ3D2fzu8afxd5coq5qtsN2IFr8kPlqZbw1R+ke5S3f3z5+t33n3788fPH817/rl/Ls58+f2kv//m/);lineShape=1;fontSize=7;" parent="1" vertex="1">
                    <mxGeometry x="304.90960666229074" y="94.26304125641457" width="6.620071763677748" height="9.531160697474949" as="geometry"/>
                </mxCell>
            </root>
        </mxGraphModel>
    </diagram>
</mxfile>